<?xml version="1.0" standalone="no"?><!DOCTYPE svg PUBLIC "-//W3C//DTD SVG 1.1//EN" "http://www.w3.org/Graphics/SVG/1.1/DTD/svg11.dtd"><svg height="1366" node-id="1" sillyvg="true" template-height="1366" template-width="1366" version="1.1" viewBox="0 0 1366 1366" width="1366" xmlns="http://www.w3.org/2000/svg" xmlns:xlink="http://www.w3.org/1999/xlink"><defs node-id="54"><clipPath id="clip0_386_89" node-id="51"><path d="M 0.00 0.00 L 1365.30 0.00 L 1365.30 1365.30 L 0.00 1365.30 Z" fill="#000000" fill-rule="nonzero" node-id="57" stroke="none" target-height="1365.3" target-width="1365.3" target-x="0" target-y="0"></path></clipPath></defs><g clip-path="url(#clip0_386_89)" id="sillyvg_g_0" node-id="61"><path d="M 0.00 0.00 L 1365.30 0.00 L 1365.30 1365.30 L 0.00 1365.30 L 0.00 0.00 Z M 701.80 68.60 L 696.00 69.30 L 690.30 70.70 L 686.60 71.90 L 679.60 75.30 L 673.30 79.80 L 670.50 82.60 L 667.40 86.00 L 664.70 89.70 L 662.50 93.50 L 659.10 101.70 L 657.90 106.10 L 656.50 112.80 L 655.60 119.60 L 654.30 133.00 L 654.10 150.30 L 654.40 159.00 L 655.40 167.50 L 656.50 173.20 L 658.00 178.70 L 659.90 184.20 L 662.10 188.50 L 664.60 192.40 L 667.60 196.00 L 670.90 199.30 L 674.60 202.30 L 678.50 204.90 L 682.70 207.10 L 687.00 209.00 L 691.50 210.50 L 696.10 211.60 L 700.70 212.30 L 710.70 212.60 L 715.90 212.40 L 726.50 210.90 L 731.60 209.50 L 736.60 207.70 L 741.30 205.40 L 745.70 202.50 L 749.80 199.10 L 753.40 195.00 L 756.40 190.60 L 758.80 185.90 L 760.80 181.00 L 762.50 175.90 L 763.70 170.70 L 765.10 162.70 L 765.90 154.70 L 766.30 143.20 L 766.30 131.60 L 765.30 116.20 L 764.30 108.60 L 763.20 103.60 L 761.60 98.70 L 759.50 94.00 L 756.90 89.60 L 753.80 85.60 L 746.90 78.90 L 743.50 76.40 L 739.80 74.20 L 735.90 72.40 L 730.50 70.50 L 724.90 69.10 L 719.10 68.30 L 713.20 68.00 L 707.50 68.10 L 701.80 68.60 Z M 581.30 79.70 L 583.20 92.30 L 589.70 129.90 L 572.80 132.80 L 555.80 135.40 L 547.20 85.20 L 512.60 90.50 L 537.10 226.50 L 545.80 225.50 L 571.60 221.50 L 569.30 207.50 L 561.70 165.90 L 595.50 160.40 L 604.70 215.90 L 638.40 210.70 L 637.60 203.00 L 636.30 195.30 L 614.90 74.70 L 581.30 79.70 Z M 830.00 91.70 L 825.70 93.10 L 821.80 94.90 L 818.10 97.20 L 814.70 99.90 L 811.50 102.90 L 808.70 106.30 L 806.10 109.80 L 801.90 117.50 L 798.30 126.20 L 795.10 135.10 L 792.50 144.20 L 790.30 153.40 L 788.60 162.60 L 787.50 172.00 L 787.10 177.90 L 787.10 183.90 L 787.90 191.80 L 790.00 199.40 L 791.60 203.00 L 793.60 206.50 L 796.40 210.20 L 799.40 213.50 L 802.60 216.60 L 806.20 219.30 L 811.30 222.60 L 816.60 225.30 L 822.20 227.50 L 828.10 229.30 L 833.90 230.60 L 844.40 232.10 L 849.00 232.20 L 853.60 232.00 L 858.20 231.30 L 862.60 230.20 L 867.00 228.70 L 871.10 226.70 L 874.90 224.20 L 878.50 221.20 L 882.40 217.30 L 885.80 213.10 L 888.80 208.60 L 893.70 198.90 L 898.20 185.90 L 900.30 178.00 L 902.20 168.50 L 903.80 158.80 L 904.50 152.30 L 904.70 139.30 L 904.10 132.90 L 902.90 126.50 L 901.10 120.20 L 899.40 116.20 L 897.30 112.60 L 894.70 109.30 L 891.70 106.40 L 888.40 103.70 L 884.90 101.20 L 879.30 98.10 L 873.50 95.60 L 866.50 93.30 L 859.30 91.50 L 854.40 90.60 L 844.60 89.90 L 839.70 90.10 L 834.80 90.70 L 830.00 91.70 Z M 424.30 115.10 L 418.20 117.60 L 412.20 120.60 L 406.60 124.00 L 401.30 128.00 L 398.00 130.90 L 392.30 137.60 L 389.70 142.20 L 387.60 147.10 L 386.00 152.20 L 385.00 157.40 L 384.40 162.70 L 384.40 168.00 L 384.80 172.90 L 386.70 182.30 L 388.90 189.20 L 391.70 195.90 L 398.00 209.00 L 407.30 226.90 L 413.70 236.50 L 417.40 240.90 L 421.50 244.90 L 425.90 248.50 L 429.40 250.90 L 433.10 253.00 L 437.10 254.60 L 441.30 256.00 L 445.90 257.10 L 450.50 257.60 L 455.10 257.50 L 459.70 256.90 L 464.30 255.90 L 468.80 254.50 L 475.40 251.80 L 486.10 246.00 L 490.40 243.10 L 494.40 239.80 L 498.20 236.10 L 501.50 232.10 L 504.40 227.80 L 506.90 223.30 L 508.80 218.50 L 510.20 213.30 L 510.80 209.90 L 511.20 203.00 L 510.70 197.90 L 509.70 192.70 L 508.10 187.70 L 506.20 182.90 L 498.90 186.50 L 476.50 196.10 L 477.70 203.10 L 478.00 206.60 L 477.70 210.10 L 477.30 212.40 L 475.20 216.60 L 473.00 219.10 L 470.50 221.20 L 467.60 222.90 L 464.50 224.30 L 461.30 225.10 L 458.00 225.40 L 454.70 225.30 L 451.50 224.50 L 448.40 223.20 L 446.00 221.30 L 442.10 216.90 L 437.40 209.30 L 426.90 188.40 L 422.20 177.60 L 418.10 166.70 L 417.40 164.10 L 417.30 159.30 L 417.80 157.00 L 419.00 154.10 L 420.60 151.40 L 422.80 148.90 L 425.30 146.70 L 428.00 145.00 L 431.10 143.70 L 434.20 142.80 L 437.40 142.50 L 440.60 142.80 L 445.50 144.70 L 447.70 146.20 L 450.60 148.80 L 453.20 151.80 L 457.60 158.30 L 488.00 144.50 L 485.70 139.40 L 482.80 134.70 L 479.40 130.30 L 475.70 126.20 L 471.50 122.60 L 467.00 119.40 L 462.60 117.10 L 458.00 115.30 L 453.30 113.90 L 448.50 113.00 L 443.60 112.40 L 438.70 112.40 L 433.80 112.80 L 429.00 113.70 L 424.30 115.10 Z M 934.40 181.90 L 936.10 186.70 L 938.20 191.20 L 940.80 195.50 L 943.80 199.50 L 950.60 206.90 L 965.40 220.40 L 972.40 227.50 L 973.40 229.00 L 974.40 232.20 L 974.30 234.60 L 973.60 237.00 L 972.40 239.30 L 970.80 241.20 L 968.70 242.80 L 966.40 243.80 L 963.30 244.50 L 960.10 244.70 L 956.80 244.50 L 953.60 243.80 L 950.50 242.60 L 947.60 241.10 L 945.00 239.10 L 942.80 236.80 L 940.90 234.10 L 940.10 232.30 L 939.80 230.50 L 940.50 222.80 L 909.40 207.60 L 906.20 217.70 L 904.80 224.50 L 904.70 231.50 L 905.20 234.90 L 907.30 241.40 L 909.40 245.50 L 911.90 249.40 L 914.90 252.90 L 918.30 256.40 L 921.90 259.50 L 925.80 262.40 L 930.00 264.90 L 935.80 267.80 L 941.70 270.10 L 947.90 272.00 L 959.00 274.60 L 964.70 275.40 L 970.40 275.60 L 977.90 274.60 L 981.60 273.60 L 985.90 271.70 L 990.00 269.50 L 993.90 266.80 L 997.50 263.80 L 1000.70 260.40 L 1003.50 256.60 L 1005.60 252.80 L 1008.80 244.70 L 1009.80 240.50 L 1010.40 236.20 L 1010.40 231.90 L 1010.00 227.60 L 1008.80 223.50 L 1007.10 219.40 L 1002.90 212.70 L 996.40 205.40 L 978.80 189.50 L 972.70 182.90 L 971.10 180.10 L 970.40 178.00 L 969.90 173.90 L 970.10 171.90 L 970.80 169.90 L 972.00 168.00 L 973.80 166.20 L 975.90 164.90 L 978.10 164.10 L 980.50 163.60 L 985.30 163.90 L 990.00 165.60 L 994.10 168.40 L 995.80 170.20 L 998.30 174.50 L 999.30 179.20 L 999.20 186.70 L 1013.50 193.70 L 1028.10 200.30 L 1030.90 191.90 L 1031.90 187.60 L 1032.50 183.30 L 1032.20 177.40 L 1030.80 170.60 L 1029.40 166.80 L 1027.70 163.20 L 1023.10 156.70 L 1020.30 153.80 L 1014.10 148.70 L 1005.00 143.30 L 999.00 140.30 L 992.80 137.80 L 986.40 135.80 L 982.10 134.80 L 977.70 134.20 L 969.60 133.80 L 962.70 134.90 L 959.40 136.00 L 955.10 138.00 L 951.20 140.40 L 947.40 143.40 L 944.10 146.80 L 941.20 150.50 L 938.60 154.60 L 936.50 158.80 L 934.90 163.30 L 933.90 167.90 L 933.40 172.60 L 933.60 177.20 L 934.40 181.90 Z M 1043.60 238.50 L 1008.40 286.10 L 997.00 302.20 L 1011.20 313.30 L 1061.40 351.30 L 1069.00 356.30 L 1087.50 332.00 L 1042.40 298.40 L 1050.10 287.40 L 1058.20 276.70 L 1078.90 292.70 L 1100.10 308.20 L 1113.60 290.40 L 1117.70 284.20 L 1076.10 253.50 L 1088.80 236.00 L 1091.60 237.50 L 1094.20 239.40 L 1116.30 256.40 L 1133.60 269.20 L 1138.30 263.30 L 1151.70 245.30 L 1115.40 218.40 L 1079.70 191.00 L 1070.40 202.70 L 1043.60 238.50 Z M 243.00 225.00 L 331.10 337.20 L 338.30 332.50 L 351.90 321.90 L 358.50 316.40 L 336.50 288.20 L 271.10 203.00 L 243.00 225.00 Z M 679.80 224.60 L 680.60 228.90 L 681.40 230.90 L 682.70 232.70 L 673.60 232.50 L 664.40 232.60 L 655.30 233.30 L 646.20 234.50 L 637.20 236.20 L 628.30 238.60 L 630.20 243.00 L 632.60 247.20 L 614.10 250.60 L 604.90 252.80 L 586.80 258.40 L 578.00 261.70 L 560.60 269.50 L 552.10 273.90 L 543.90 278.70 L 535.90 283.80 L 528.20 289.30 L 520.80 295.20 L 513.70 301.50 L 506.90 308.20 L 494.70 321.70 L 489.20 328.50 L 484.10 335.50 L 474.90 350.30 L 466.30 367.30 L 462.20 376.90 L 458.40 386.70 L 455.20 396.60 L 452.50 406.70 L 450.40 416.90 L 449.30 424.60 L 448.50 432.40 L 448.20 440.20 L 448.30 448.00 L 448.60 451.80 L 451.30 470.70 L 451.50 475.60 L 451.20 480.50 L 450.50 485.40 L 449.50 490.30 L 446.50 499.70 L 435.00 525.70 L 431.40 534.50 L 429.10 541.20 L 427.30 548.10 L 426.10 555.20 L 425.30 562.30 L 425.20 569.40 L 425.60 576.50 L 426.50 583.60 L 428.10 590.50 L 430.20 597.40 L 433.20 605.00 L 436.70 612.40 L 440.60 619.50 L 444.90 626.50 L 449.50 633.20 L 454.50 639.60 L 459.90 645.80 L 465.60 651.70 L 472.70 657.90 L 480.20 663.60 L 488.00 668.80 L 496.10 673.50 L 504.50 677.90 L 513.00 681.90 L 521.80 685.40 L 539.50 691.60 L 534.90 699.40 L 511.20 700.00 L 487.50 699.70 L 471.80 698.50 L 463.90 697.50 L 462.50 692.60 L 460.60 687.90 L 444.30 653.90 L 429.10 657.70 L 417.60 625.90 L 405.60 594.30 L 389.20 553.00 L 380.70 532.50 L 371.70 512.10 L 363.40 494.30 L 354.60 476.70 L 345.30 459.40 L 330.80 433.80 L 306.40 393.30 L 303.00 388.40 L 298.50 394.00 L 290.40 405.90 L 286.80 412.10 L 282.50 420.70 L 278.80 429.40 L 275.40 438.30 L 272.60 447.40 L 270.10 456.60 L 268.20 465.90 L 266.70 475.30 L 265.70 484.80 L 265.20 494.40 L 265.10 503.90 L 265.50 513.40 L 266.40 522.80 L 267.80 532.30 L 269.60 541.60 L 272.00 550.80 L 274.80 559.90 L 280.20 573.30 L 292.70 599.20 L 338.40 691.00 L 303.50 706.30 L 292.20 712.10 L 297.60 726.30 L 309.60 754.30 L 318.30 751.90 L 343.70 742.90 L 341.60 747.20 L 340.00 751.60 L 338.90 756.10 L 338.20 760.80 L 337.90 765.50 L 338.10 770.20 L 338.70 774.90 L 339.60 779.60 L 342.60 788.60 L 344.60 792.90 L 349.70 801.00 L 355.90 808.60 L 359.40 812.00 L 367.20 818.00 L 371.40 820.40 L 375.80 822.40 L 380.60 823.90 L 381.50 828.90 L 384.40 838.80 L 390.30 853.10 L 392.00 856.40 L 394.00 859.50 L 396.50 862.50 L 399.20 865.10 L 402.20 867.20 L 405.50 869.00 L 412.00 868.70 L 418.50 867.70 L 424.80 866.20 L 431.10 864.20 L 437.20 861.90 L 445.60 858.10 L 447.70 856.50 L 453.30 850.80 L 455.30 849.20 L 457.50 847.90 L 460.10 847.20 L 484.80 846.40 L 484.60 851.80 L 483.60 852.20 L 483.40 852.70 L 483.60 853.10 L 484.60 853.50 L 485.70 872.20 L 486.80 881.40 L 488.30 890.70 L 490.60 900.00 L 493.30 909.20 L 496.50 918.20 L 500.30 927.00 L 504.60 935.60 L 509.40 943.90 L 514.70 951.90 L 520.50 959.50 L 531.10 972.00 L 478.70 982.70 L 456.60 988.20 L 451.90 990.00 L 449.80 991.40 L 448.10 993.30 L 445.40 997.10 L 438.30 1009.30 L 449.30 1022.30 L 454.60 1029.10 L 459.40 1036.10 L 462.30 1040.90 L 464.80 1046.00 L 467.50 1053.00 L 468.80 1058.40 L 470.50 1061.50 L 475.60 1063.50 L 512.80 1070.80 L 538.90 1076.70 L 551.80 1080.30 L 580.90 1090.00 L 585.10 1091.00 L 589.40 1091.40 L 639.20 1054.10 L 663.80 1035.10 L 677.60 1036.80 L 691.40 1038.00 L 705.20 1038.80 L 726.00 1039.30 L 746.80 1039.30 L 750.00 1065.90 L 754.50 1092.20 L 762.80 1094.60 L 809.60 1104.40 L 831.00 1109.60 L 854.80 1107.90 L 866.70 1107.50 L 874.40 1107.50 L 897.40 1108.80 L 902.00 1101.50 L 909.30 1093.70 L 960.00 1050.70 L 962.40 1048.20 L 964.40 1045.50 L 963.70 1042.50 L 962.70 1039.90 L 961.10 1037.60 L 957.20 1033.60 L 951.10 1029.50 L 947.50 1027.40 L 934.70 1021.00 L 895.70 1003.20 L 905.90 997.30 L 915.80 991.00 L 925.40 984.30 L 934.70 977.10 L 943.70 969.60 L 952.40 961.70 L 971.40 943.30 L 983.30 930.30 L 989.00 923.50 L 993.80 916.90 L 998.30 910.10 L 1002.30 902.90 L 1007.80 891.90 L 1016.50 871.60 L 1023.00 853.20 L 1025.80 843.90 L 1028.00 834.40 L 1029.70 824.80 L 1031.30 808.80 L 1035.80 792.40 L 1037.20 785.60 L 1039.00 770.60 L 1039.30 762.50 L 1039.00 754.40 L 1038.30 746.30 L 1037.10 738.20 L 1035.50 730.20 L 1033.40 722.30 L 1028.30 706.80 L 1020.00 707.30 L 1016.20 698.40 L 1013.70 694.20 L 1010.70 690.30 L 1006.90 692.30 L 1003.30 694.70 L 996.50 700.10 L 991.50 693.80 L 988.70 690.90 L 985.40 688.50 L 983.70 688.50 L 982.10 689.00 L 976.00 693.40 L 960.30 708.20 L 957.20 710.50 L 950.30 714.60 L 942.70 717.70 L 938.80 718.80 L 930.60 719.80 L 924.60 720.20 L 918.70 720.10 L 903.80 718.60 L 894.90 717.10 L 875.90 713.00 L 869.70 711.20 L 863.70 709.00 L 857.90 706.10 L 852.10 701.70 L 835.10 687.60 L 845.20 683.50 L 855.10 679.00 L 864.80 674.00 L 871.90 669.90 L 885.40 660.80 L 891.80 655.80 L 897.70 650.10 L 903.20 644.10 L 908.30 637.90 L 913.10 631.20 L 917.40 624.40 L 921.30 617.30 L 924.80 609.90 L 927.80 602.40 L 930.20 594.70 L 932.20 586.80 L 933.60 578.80 L 934.80 565.70 L 934.80 560.80 L 933.80 541.10 L 934.00 536.20 L 936.20 521.40 L 937.20 511.50 L 937.80 501.70 L 937.70 481.80 L 936.10 462.10 L 934.70 452.20 L 932.40 439.20 L 929.60 426.30 L 926.40 413.50 L 922.70 402.30 L 918.60 391.40 L 913.90 380.60 L 910.10 372.70 L 901.40 357.50 L 896.60 350.10 L 890.40 341.70 L 883.90 333.60 L 877.00 325.90 L 869.80 318.40 L 862.30 311.20 L 854.50 304.30 L 846.40 297.80 L 838.00 291.60 L 831.50 287.40 L 818.10 279.70 L 807.80 274.50 L 797.20 269.70 L 775.90 260.60 L 773.20 259.20 L 758.60 246.80 L 752.20 242.00 L 740.90 234.70 L 731.30 230.00 L 720.20 226.40 L 714.50 225.00 L 703.00 223.40 L 691.30 223.20 L 685.50 223.70 L 679.80 224.60 Z M 268.80 1007.90 L 258.50 1056.70 L 239.50 1154.60 L 266.90 1171.50 L 291.80 1152.00 L 349.80 1105.60 L 382.70 1078.50 L 367.00 1068.70 L 351.10 1059.40 L 278.10 1124.00 L 285.50 1093.80 L 300.10 1030.10 L 300.30 1027.00 L 268.80 1007.90 Z M 1065.00 1046.20 L 1038.30 1064.10 L 1029.60 1070.30 L 1087.20 1155.40 L 1106.60 1183.70 L 1150.90 1153.10 L 1177.70 1135.00 L 1181.30 1132.00 L 1177.40 1125.50 L 1164.30 1106.80 L 1129.50 1130.40 L 1118.20 1138.50 L 1103.10 1117.10 L 1144.70 1089.20 L 1134.90 1073.20 L 1129.60 1065.50 L 1087.40 1093.00 L 1074.30 1074.40 L 1085.80 1066.50 L 1120.90 1043.90 L 1104.90 1019.20 L 1065.00 1046.20 Z M 404.90 1089.30 L 392.60 1120.30 L 353.70 1215.40 L 353.90 1216.70 L 354.60 1217.20 L 369.90 1224.70 L 385.50 1231.80 L 401.90 1191.20 L 433.90 1115.90 L 438.50 1104.00 L 404.90 1089.30 Z M 977.70 1096.40 L 965.30 1101.50 L 961.30 1103.50 L 953.80 1108.40 L 950.40 1111.20 L 947.30 1114.40 L 941.80 1121.80 L 939.50 1126.00 L 937.70 1130.30 L 936.40 1134.90 L 935.50 1139.50 L 935.00 1144.30 L 934.90 1149.00 L 935.30 1153.70 L 936.10 1158.40 L 938.00 1164.60 L 942.80 1176.60 L 951.40 1194.00 L 955.20 1201.00 L 962.40 1212.30 L 969.20 1220.50 L 973.00 1224.10 L 977.20 1227.30 L 981.90 1230.10 L 985.80 1231.90 L 989.70 1233.20 L 993.80 1233.90 L 1002.20 1234.20 L 1006.40 1233.70 L 1012.70 1232.50 L 1018.80 1230.80 L 1024.60 1228.40 L 1030.20 1225.50 L 1035.70 1222.20 L 1039.50 1219.50 L 1046.50 1213.10 L 1049.60 1209.60 L 1051.90 1206.20 L 1055.40 1199.10 L 1056.70 1195.30 L 1057.80 1190.10 L 1058.30 1184.80 L 1058.30 1179.50 L 1057.60 1174.20 L 1056.50 1169.00 L 1054.80 1164.00 L 1047.40 1166.80 L 1025.60 1176.00 L 1026.40 1182.30 L 1026.50 1185.50 L 1025.60 1190.50 L 1023.60 1194.30 L 1021.80 1196.30 L 1019.80 1198.10 L 1014.90 1200.80 L 1009.60 1202.30 L 1004.10 1202.30 L 1001.40 1201.80 L 998.90 1200.80 L 996.60 1199.40 L 994.50 1197.50 L 988.30 1190.00 L 982.00 1179.80 L 978.80 1173.30 L 973.10 1160.00 L 970.40 1151.20 L 969.60 1146.60 L 969.50 1142.00 L 969.80 1139.00 L 970.50 1136.00 L 971.70 1133.10 L 973.50 1130.70 L 975.60 1128.60 L 978.10 1126.80 L 980.70 1125.20 L 986.40 1123.30 L 989.40 1122.90 L 992.40 1122.90 L 995.40 1123.40 L 998.10 1124.70 L 1000.50 1126.40 L 1002.60 1128.40 L 1005.50 1131.90 L 1008.00 1135.50 L 1036.70 1123.00 L 1034.70 1118.50 L 1032.30 1114.30 L 1029.50 1110.20 L 1026.30 1106.40 L 1022.80 1102.90 L 1018.90 1099.90 L 1014.70 1097.40 L 1010.20 1095.40 L 1005.50 1094.00 L 999.20 1092.90 L 991.40 1093.20 L 986.80 1094.00 L 977.70 1096.40 Z M 485.90 1128.80 L 482.10 1129.90 L 475.10 1133.10 L 471.80 1135.20 L 467.80 1138.40 L 464.10 1142.10 L 460.80 1146.10 L 457.30 1151.30 L 451.30 1162.10 L 446.60 1173.60 L 444.60 1179.50 L 442.10 1188.50 L 440.20 1197.60 L 439.00 1205.20 L 438.30 1212.90 L 438.40 1223.20 L 439.00 1228.30 L 440.10 1233.20 L 441.80 1238.00 L 444.00 1242.80 L 446.30 1246.40 L 448.80 1249.80 L 454.80 1255.70 L 459.30 1259.00 L 464.10 1261.90 L 469.30 1264.50 L 479.90 1268.50 L 489.50 1271.00 L 493.80 1271.50 L 498.10 1271.60 L 502.40 1271.30 L 506.70 1270.60 L 510.80 1269.50 L 514.90 1267.90 L 518.70 1266.00 L 522.30 1263.60 L 526.90 1259.80 L 531.10 1255.70 L 535.00 1251.20 L 538.50 1246.40 L 541.70 1241.50 L 544.60 1236.30 L 549.40 1225.40 L 553.50 1212.30 L 555.40 1204.60 L 556.90 1196.80 L 558.00 1189.00 L 558.30 1178.50 L 557.90 1173.20 L 557.10 1168.60 L 555.80 1164.10 L 553.90 1159.90 L 551.60 1155.80 L 548.90 1152.00 L 545.90 1148.50 L 542.50 1145.20 L 538.90 1142.30 L 535.00 1139.70 L 524.90 1134.30 L 519.60 1132.10 L 514.10 1130.20 L 508.60 1128.90 L 503.00 1128.00 L 497.30 1127.60 L 491.60 1127.90 L 485.90 1128.80 Z M 868.50 1138.20 L 878.40 1173.30 L 888.90 1208.20 L 874.80 1193.70 L 831.70 1151.00 L 828.90 1148.50 L 827.00 1148.30 L 799.40 1153.00 L 815.00 1220.60 L 831.70 1287.90 L 864.70 1281.30 L 848.60 1216.40 L 905.10 1269.90 L 906.30 1270.50 L 910.60 1270.00 L 936.80 1264.10 L 929.20 1234.70 L 901.20 1130.70 L 892.90 1132.10 L 884.70 1134.00 L 868.50 1138.20 Z M 576.60 1288.10 L 664.60 1298.00 L 667.70 1267.20 L 654.30 1265.20 L 613.70 1260.70 L 620.90 1189.60 L 623.80 1154.00 L 588.80 1149.90 L 576.60 1288.10 Z M 689.60 1161.10 L 692.60 1207.30 L 699.70 1299.70 L 707.70 1299.50 L 788.60 1293.80 L 787.30 1263.60 L 738.10 1267.10 L 731.70 1267.30 L 730.10 1247.50 L 729.80 1240.80 L 779.10 1237.90 L 778.00 1209.80 L 765.60 1210.10 L 728.50 1212.40 L 727.80 1211.50 L 727.60 1210.40 L 726.20 1188.60 L 780.50 1184.90 L 779.00 1155.60 L 689.60 1161.10 Z" fill="#fdfdfd" fill-rule="nonzero" node-id="63" stroke="none" target-height="1365.3" target-width="1365.3" target-x="0" target-y="0"></path><path d="M 703.30 98.30 L 710.40 97.30 L 714.00 97.40 L 717.50 98.10 L 721.90 99.90 L 723.90 101.30 L 726.20 103.60 L 727.90 106.30 L 729.20 109.20 L 730.80 115.60 L 731.40 126.70 L 731.40 134.70 L 730.90 150.60 L 729.50 163.60 L 727.70 170.50 L 725.00 175.60 L 723.10 177.70 L 721.00 179.40 L 718.50 180.70 L 713.30 182.20 L 710.40 182.50 L 706.20 182.30 L 702.20 181.60 L 700.00 180.60 L 696.30 177.70 L 694.20 175.00 L 692.50 171.90 L 691.20 168.50 L 690.40 165.10 L 689.50 157.80 L 689.10 150.40 L 689.00 143.00 L 689.50 131.80 L 690.50 120.80 L 691.30 116.40 L 693.40 109.00 L 696.30 103.80 L 698.20 101.60 L 700.50 99.70 L 703.30 98.30 Z" fill="#fdfdfd" fill-rule="nonzero" node-id="65" stroke="none" target-height="85.2" target-width="42.400024" target-x="689" target-y="97.3"></path><path d="M 848.00 119.80 L 851.40 119.80 L 854.80 120.20 L 858.20 121.10 L 861.30 122.40 L 864.20 124.30 L 866.70 126.70 L 869.00 131.00 L 870.10 136.90 L 870.20 140.70 L 869.70 148.00 L 868.10 159.00 L 865.90 169.90 L 863.20 180.70 L 860.90 187.30 L 857.70 193.40 L 855.70 196.20 L 853.20 198.60 L 850.60 200.10 L 848.00 201.00 L 845.10 201.60 L 842.20 201.60 L 836.50 200.70 L 831.20 198.40 L 826.80 195.10 L 823.80 191.00 L 822.40 187.50 L 821.50 183.70 L 821.10 176.00 L 823.30 161.80 L 825.00 154.80 L 829.20 141.10 L 833.40 131.00 L 837.10 125.70 L 840.90 122.40 L 843.00 121.20 L 845.40 120.30 L 848.00 119.80 Z" fill="#fdfdfd" fill-rule="nonzero" node-id="67" stroke="none" target-height="81.8" target-width="49.100037" target-x="821.1" target-y="119.8"></path><path d="M 706.80 238.80 L 712.20 239.50 L 717.50 240.90 L 727.70 244.70 L 737.60 249.40 L 741.60 251.80 L 745.30 254.70 L 752.40 260.80 L 744.90 259.70 L 741.10 259.40 L 737.30 259.70 L 736.20 260.90 L 736.40 262.50 L 736.80 263.20 L 740.70 265.40 L 766.20 274.90 L 790.80 285.00 L 799.80 289.30 L 808.70 293.90 L 817.40 299.00 L 825.80 304.40 L 833.90 310.20 L 843.80 318.10 L 853.40 326.40 L 859.60 332.20 L 871.10 344.50 L 876.40 351.00 L 881.30 357.90 L 891.00 373.60 L 895.80 382.40 L 904.30 400.50 L 908.00 409.80 L 911.20 419.20 L 913.90 428.80 L 916.10 438.60 L 918.00 450.20 L 919.40 461.90 L 920.30 473.50 L 920.70 485.30 L 920.60 497.10 L 920.00 508.80 L 918.90 520.40 L 916.60 535.60 L 916.40 539.10 L 917.40 560.10 L 917.30 566.70 L 916.80 573.30 L 915.80 579.80 L 912.70 592.70 L 908.10 605.10 L 902.00 616.80 L 898.50 622.40 L 890.50 633.10 L 886.00 638.00 L 881.10 642.50 L 875.90 646.70 L 865.00 654.40 L 856.40 659.40 L 847.70 664.00 L 838.70 668.20 L 829.60 672.00 L 810.90 678.60 L 796.70 682.80 L 782.30 686.50 L 770.00 688.90 L 757.70 690.70 L 745.20 692.10 L 732.70 693.10 L 716.00 693.70 L 699.30 693.60 L 666.60 692.40 L 634.60 689.80 L 618.60 688.10 L 586.60 683.60 L 575.90 681.90 L 554.90 677.30 L 544.50 674.50 L 534.30 671.20 L 524.20 667.40 L 509.40 660.70 L 502.20 656.80 L 495.30 652.50 L 488.60 647.90 L 482.20 642.90 L 476.20 637.50 L 470.50 631.80 L 465.20 625.60 L 460.80 619.60 L 456.70 613.40 L 453.00 606.90 L 449.70 600.10 L 447.00 593.20 L 444.90 586.10 L 443.70 580.60 L 442.90 575.20 L 442.50 569.60 L 442.60 563.90 L 443.20 557.80 L 444.20 551.70 L 445.70 545.80 L 448.60 537.10 L 452.10 528.50 L 461.90 506.40 L 465.40 495.60 L 466.80 490.00 L 468.50 478.70 L 468.70 474.20 L 468.40 469.80 L 466.50 456.50 L 465.70 444.10 L 465.80 436.20 L 466.40 428.40 L 467.30 420.50 L 470.50 405.10 L 475.00 389.90 L 478.80 380.00 L 483.00 370.30 L 487.80 360.90 L 493.00 352.30 L 498.70 343.90 L 504.90 335.80 L 511.40 328.10 L 518.30 320.70 L 525.60 313.60 L 533.30 307.00 L 541.30 300.80 L 557.20 290.30 L 565.00 285.90 L 573.00 282.00 L 581.20 278.40 L 589.60 275.20 L 606.60 270.00 L 615.40 267.90 L 627.10 265.70 L 638.90 264.00 L 650.80 262.90 L 659.90 262.20 L 687.30 261.90 L 687.70 259.10 L 682.90 256.50 L 672.80 252.50 L 657.20 248.00 L 668.90 247.50 L 683.50 248.60 L 692.20 250.00 L 712.60 254.30 L 715.80 254.10 L 717.10 253.40 L 718.30 252.10 L 714.90 247.30 L 706.80 238.80 Z M 545.30 422.50 L 541.00 423.50 L 536.90 424.90 L 533.00 426.70 L 529.20 428.90 L 525.70 431.50 L 518.80 438.50 L 515.60 442.80 L 513.00 447.40 L 510.90 452.30 L 509.10 457.40 L 507.80 462.70 L 506.90 468.00 L 506.10 478.70 L 506.50 488.90 L 507.10 493.90 L 509.00 502.10 L 511.70 508.40 L 515.10 513.20 L 517.30 515.40 L 519.70 517.10 L 522.40 518.40 L 525.30 519.30 L 529.20 519.60 L 533.10 519.60 L 537.10 519.10 L 540.90 518.10 L 544.60 516.80 L 548.20 515.10 L 551.60 513.10 L 554.70 510.70 L 557.60 508.00 L 561.70 503.50 L 565.20 498.60 L 568.40 493.50 L 571.00 488.00 L 573.30 482.40 L 575.00 476.60 L 576.30 470.70 L 577.20 464.70 L 577.60 458.70 L 577.30 453.70 L 575.90 445.30 L 573.70 438.90 L 572.10 436.00 L 570.20 433.20 L 567.90 430.70 L 564.70 428.10 L 561.20 425.80 L 557.40 424.00 L 553.50 422.80 L 550.80 422.40 L 545.30 422.50 Z M 744.80 432.00 L 741.10 432.40 L 737.50 433.30 L 734.10 434.60 L 727.80 438.40 L 724.80 440.70 L 721.50 443.90 L 715.50 451.10 L 713.00 455.10 L 710.00 460.60 L 707.60 466.40 L 705.70 472.40 L 704.40 478.50 L 703.70 484.80 L 703.50 491.00 L 703.90 497.30 L 705.00 503.40 L 706.70 509.40 L 708.30 513.70 L 710.40 517.90 L 712.80 521.90 L 718.70 529.60 L 724.80 535.20 L 730.40 538.50 L 733.40 539.70 L 736.60 540.50 L 743.30 541.20 L 746.70 541.00 L 749.90 540.40 L 753.10 539.50 L 757.10 537.70 L 761.00 535.50 L 764.60 532.70 L 767.90 529.70 L 773.70 522.90 L 777.40 516.80 L 780.70 510.40 L 784.00 501.50 L 786.10 492.20 L 786.50 487.40 L 786.40 477.80 L 785.10 468.20 L 782.40 458.80 L 780.50 454.40 L 778.20 450.10 L 775.50 446.00 L 772.50 442.20 L 767.30 438.00 L 764.40 436.20 L 758.20 433.40 L 751.60 432.00 L 744.80 432.00 Z M 560.10 520.20 L 556.40 522.10 L 553.10 524.50 L 550.00 527.20 L 537.00 541.20 L 532.00 545.80 L 524.70 551.00 L 520.80 553.20 L 518.50 540.50 L 516.10 534.50 L 514.10 531.00 L 511.70 527.70 L 508.80 524.80 L 505.70 522.20 L 502.20 520.00 L 498.50 518.30 L 494.70 517.10 L 490.70 516.60 L 486.50 516.70 L 481.60 517.40 L 476.80 518.70 L 473.70 519.90 L 468.00 523.20 L 463.00 527.50 L 460.90 530.10 L 458.70 533.80 L 457.00 537.70 L 455.80 541.90 L 455.10 546.20 L 454.90 550.40 L 455.20 554.80 L 456.00 559.00 L 457.30 563.10 L 459.20 566.90 L 461.50 570.50 L 464.30 573.70 L 472.50 580.70 L 471.20 583.50 L 470.40 586.50 L 469.90 589.50 L 469.80 594.10 L 470.30 598.80 L 471.40 603.40 L 472.80 607.80 L 474.70 611.70 L 477.10 615.20 L 479.90 618.30 L 486.50 623.60 L 490.20 625.80 L 496.00 628.70 L 501.90 630.90 L 513.70 634.30 L 528.90 636.90 L 538.10 637.70 L 556.50 638.20 L 562.20 644.60 L 565.40 647.40 L 569.00 649.70 L 576.30 653.10 L 585.90 655.60 L 591.90 656.50 L 603.90 657.50 L 612.30 657.10 L 620.70 656.20 L 629.00 654.80 L 645.40 651.10 L 660.70 646.80 L 675.30 643.80 L 686.30 642.40 L 697.40 641.60 L 704.70 640.50 L 716.80 637.70 L 726.00 634.30 L 730.40 632.10 L 734.50 629.50 L 738.40 626.40 L 744.00 620.50 L 748.40 613.80 L 750.60 608.90 L 752.40 603.80 L 753.60 598.60 L 754.30 593.20 L 754.50 587.90 L 754.20 582.50 L 752.80 577.50 L 751.70 575.20 L 749.60 572.10 L 746.90 569.20 L 743.90 566.90 L 740.60 564.90 L 720.70 555.70 L 714.30 552.00 L 710.40 549.30 L 703.40 543.20 L 688.90 528.80 L 683.90 524.90 L 678.60 521.50 L 673.00 518.50 L 667.20 515.80 L 655.20 511.70 L 642.80 509.10 L 633.50 507.90 L 624.10 507.30 L 614.70 507.40 L 605.30 508.00 L 596.00 509.20 L 586.80 511.10 L 577.70 513.50 L 568.80 516.60 L 560.10 520.20 Z M 808.50 537.00 L 804.50 538.30 L 800.60 540.00 L 797.00 542.30 L 793.70 544.90 L 790.60 547.80 L 787.90 551.10 L 785.50 554.70 L 783.50 558.50 L 782.00 562.40 L 780.90 566.50 L 780.40 570.60 L 780.30 574.80 L 780.80 579.00 L 781.90 583.00 L 783.70 587.10 L 786.20 590.80 L 789.10 594.10 L 792.40 597.00 L 796.10 599.40 L 800.00 601.40 L 804.20 603.00 L 808.50 604.10 L 812.90 604.70 L 821.40 604.70 L 825.50 604.00 L 829.40 602.80 L 833.20 601.20 L 836.70 599.10 L 840.00 596.70 L 843.00 593.90 L 845.70 590.80 L 848.10 587.40 L 850.00 583.80 L 851.50 580.00 L 852.50 576.00 L 852.90 572.20 L 852.80 568.50 L 852.30 564.90 L 850.20 557.80 L 846.60 551.20 L 841.80 545.50 L 836.00 541.00 L 832.70 539.20 L 828.90 537.60 L 824.90 536.60 L 820.90 536.10 L 816.70 536.10 L 808.50 537.00 Z" fill="#fdfdfd" fill-rule="nonzero" node-id="69" stroke="none" target-height="454.90002" target-width="478.2" target-x="442.5" target-y="238.8"></path><path d="M 523.70 450.90 L 527.00 445.80 L 529.10 443.50 L 531.50 441.70 L 533.20 440.70 L 536.90 439.60 L 538.80 439.60 L 540.80 440.10 L 542.80 441.00 L 544.00 443.80 L 544.50 446.60 L 544.40 449.60 L 543.90 452.50 L 542.90 455.30 L 541.40 458.00 L 539.50 460.40 L 537.40 462.40 L 535.00 464.00 L 532.30 465.20 L 529.50 465.70 L 526.50 465.70 L 524.60 464.80 L 523.20 463.60 L 522.30 462.00 L 521.90 460.30 L 521.90 456.40 L 522.60 453.50 L 523.70 450.90 Z" fill="#fdfdfd" fill-rule="nonzero" node-id="71" stroke="none" target-height="26.100006" target-width="22.599976" target-x="521.9" target-y="439.6"></path><path d="M 733.60 710.70 L 747.60 709.40 L 761.60 707.50 L 775.50 704.90 L 789.20 701.80 L 802.90 698.20 L 816.40 694.10 L 820.20 697.00 L 830.70 706.60 L 840.80 714.80 L 861.50 730.90 L 872.20 738.40 L 883.10 745.60 L 894.40 752.30 L 902.40 756.50 L 918.90 764.00 L 931.50 769.00 L 944.30 773.60 L 970.10 782.30 L 972.40 783.30 L 974.30 784.70 L 975.90 786.60 L 977.10 788.70 L 977.80 791.00 L 978.00 793.50 L 977.30 800.70 L 975.10 809.50 L 971.80 819.90 L 970.40 825.20 L 970.10 827.70 L 970.50 830.10 L 971.30 832.30 L 974.60 839.00 L 974.00 841.10 L 973.10 843.10 L 971.70 844.90 L 968.40 847.90 L 966.40 849.00 L 958.70 851.20 L 956.30 852.20 L 953.60 854.30 L 952.40 855.80 L 957.30 863.60 L 958.00 866.40 L 957.30 870.50 L 956.40 872.80 L 955.20 874.90 L 952.80 877.70 L 950.00 880.20 L 943.70 884.20 L 938.50 886.50 L 933.30 888.50 L 927.90 890.00 L 919.70 891.60 L 911.40 892.70 L 888.50 894.30 L 882.50 894.20 L 876.40 893.70 L 867.40 892.20 L 858.60 890.20 L 852.40 888.20 L 846.30 885.70 L 840.50 882.70 L 829.60 875.60 L 817.90 866.20 L 807.30 856.70 L 799.80 848.10 L 795.90 842.40 L 792.40 836.50 L 789.30 830.30 L 784.30 817.40 L 778.60 797.90 L 775.20 789.60 L 773.00 785.70 L 770.90 783.30 L 769.50 782.30 L 767.20 781.70 L 765.30 782.60 L 764.10 786.80 L 763.30 791.00 L 763.10 799.70 L 764.20 808.20 L 767.10 820.80 L 771.40 833.00 L 776.90 844.70 L 782.00 852.50 L 787.40 859.90 L 793.40 867.00 L 799.70 873.70 L 806.50 880.10 L 813.50 886.00 L 820.90 891.50 L 828.70 896.60 L 838.80 901.90 L 844.00 904.00 L 852.10 906.60 L 860.40 908.60 L 868.80 910.10 L 877.20 911.20 L 886.70 911.40 L 896.20 911.10 L 905.70 910.40 L 915.20 909.40 L 928.70 907.10 L 935.40 905.40 L 941.90 903.20 L 946.10 901.40 L 950.20 899.30 L 957.80 894.10 L 964.80 887.70 L 967.90 884.20 L 970.50 880.30 L 972.70 876.30 L 973.90 873.10 L 974.80 869.70 L 975.30 866.20 L 975.40 862.60 L 981.30 857.80 L 984.00 855.10 L 986.40 852.10 L 988.40 848.80 L 989.90 845.30 L 990.50 842.00 L 990.50 838.70 L 988.30 825.50 L 988.20 822.20 L 988.70 818.90 L 992.60 802.50 L 993.30 794.20 L 993.10 790.00 L 992.40 785.90 L 991.10 781.90 L 989.70 779.00 L 985.80 773.80 L 981.00 769.60 L 978.30 767.80 L 973.90 765.60 L 932.80 751.30 L 920.90 746.60 L 909.10 741.50 L 897.50 735.80 L 889.70 732.50 L 910.50 736.00 L 922.10 737.40 L 931.50 737.50 L 941.90 736.00 L 947.10 734.70 L 952.10 733.00 L 956.80 730.80 L 961.30 728.00 L 967.00 723.90 L 975.70 716.00 L 981.80 708.90 L 982.90 712.20 L 983.60 715.60 L 983.90 718.90 L 983.60 724.00 L 980.80 739.20 L 983.90 742.20 L 989.80 738.30 L 996.30 732.30 L 1006.80 720.10 L 1007.20 724.60 L 1007.10 729.00 L 1004.80 746.90 L 1007.80 748.50 L 1011.30 747.50 L 1014.70 746.00 L 1017.80 744.00 L 1020.50 741.60 L 1021.70 748.40 L 1022.50 755.30 L 1022.80 762.30 L 1022.70 772.70 L 1022.10 783.10 L 1017.20 776.00 L 1015.80 774.40 L 1014.20 773.30 L 1011.70 772.60 L 1010.10 772.80 L 1009.50 774.90 L 1009.60 777.00 L 1012.90 797.20 L 1013.90 807.90 L 1013.70 820.70 L 1012.80 828.00 L 1011.40 835.20 L 1007.40 849.30 L 1000.90 866.60 L 993.80 883.40 L 990.50 889.70 L 986.80 895.80 L 978.60 907.60 L 974.20 913.20 L 959.90 929.20 L 941.10 948.40 L 934.60 954.60 L 927.90 960.50 L 920.90 966.00 L 903.20 978.20 L 894.00 983.70 L 884.60 988.90 L 875.00 993.60 L 865.10 997.70 L 855.80 1001.20 L 836.90 1006.80 L 822.50 1010.20 L 808.00 1013.10 L 791.90 1015.40 L 780.30 1018.00 L 767.50 1019.80 L 740.00 1021.60 L 736.00 1021.70 L 704.10 1020.80 L 690.30 1019.90 L 676.50 1018.70 L 658.30 1016.10 L 640.30 1012.20 L 631.40 1009.80 L 622.70 1006.90 L 614.20 1003.70 L 605.90 1000.20 L 597.70 996.20 L 585.70 989.80 L 574.00 983.10 L 567.20 978.70 L 554.30 969.10 L 548.20 963.90 L 542.50 958.30 L 533.70 948.50 L 530.50 944.50 L 523.50 933.90 L 519.90 927.10 L 513.60 913.20 L 510.60 904.50 L 508.00 895.70 L 506.00 886.70 L 504.50 877.70 L 503.50 868.60 L 503.00 859.40 L 503.00 850.20 L 503.50 841.00 L 506.20 819.90 L 508.40 808.10 L 511.10 796.40 L 514.40 784.80 L 518.20 773.40 L 522.40 762.20 L 527.20 751.10 L 532.40 740.20 L 544.10 717.90 L 550.40 706.90 L 557.10 696.10 L 574.50 699.70 L 592.00 702.80 L 609.50 705.40 L 627.10 707.50 L 644.80 709.20 L 662.60 710.40 L 680.30 711.20 L 698.10 711.50 L 715.80 711.30 L 733.60 710.70 Z" fill="#fdfdfd" fill-rule="nonzero" node-id="73" stroke="none" target-height="327.60004" target-width="519.8" target-x="503" target-y="694.1"></path><path d="M 429.20 704.70 L 433.00 705.30 L 436.60 706.40 L 447.10 710.80 L 450.70 711.90 L 458.80 714.00 L 466.90 715.50 L 475.10 716.60 L 487.40 717.60 L 499.90 717.90 L 524.70 717.60 L 516.80 730.70 L 509.50 744.10 L 505.00 754.10 L 500.90 764.30 L 497.30 774.70 L 494.10 785.30 L 491.30 796.00 L 489.10 806.70 L 487.20 817.60 L 485.90 828.50 L 458.10 827.20 L 446.80 804.00 L 429.70 771.40 L 428.30 768.00 L 433.80 757.50 L 434.90 753.70 L 435.60 749.40 L 435.80 745.10 L 435.60 740.80 L 434.80 736.60 L 433.90 733.80 L 431.30 728.70 L 428.00 724.30 L 420.80 716.10 L 421.20 712.70 L 423.20 709.20 L 425.00 707.40 L 429.20 704.70 Z" fill="#fdfdfd" fill-rule="nonzero" node-id="75" stroke="none" target-height="123.79999" target-width="103.900024" target-x="420.8" target-y="704.7"></path><path d="M 395.90 727.90 L 399.40 727.80 L 403.00 728.20 L 406.50 729.20 L 411.90 731.80 L 415.40 734.90 L 416.80 736.70 L 417.90 738.80 L 419.10 743.70 L 419.10 746.00 L 418.60 748.30 L 417.40 751.70 L 415.60 754.90 L 411.10 760.60 L 407.90 762.80 L 395.10 769.50 L 391.20 773.00 L 392.80 776.60 L 395.80 778.10 L 399.10 779.10 L 405.80 779.80 L 412.60 779.50 L 414.20 782.60 L 415.20 786.00 L 415.10 787.70 L 413.30 791.90 L 410.00 796.00 L 406.90 798.60 L 403.50 800.70 L 396.20 804.10 L 398.60 809.30 L 394.30 809.70 L 390.00 809.40 L 385.80 808.60 L 381.60 807.30 L 377.80 805.40 L 374.20 803.00 L 370.10 799.60 L 366.50 795.70 L 363.30 791.50 L 360.60 786.90 L 358.40 782.20 L 356.60 777.10 L 355.50 772.00 L 354.90 766.70 L 355.10 758.80 L 356.40 753.80 L 358.00 750.30 L 360.10 747.00 L 365.10 741.10 L 371.10 736.50 L 374.40 734.60 L 379.50 732.20 L 384.90 730.30 L 390.40 728.90 L 395.90 727.90 Z" fill="#fdfdfd" fill-rule="nonzero" node-id="77" stroke="none" target-height="81.900024" target-width="64.20001" target-x="354.9" target-y="727.8"></path><path d="M 497.90 1158.20 L 503.10 1157.50 L 505.70 1157.70 L 509.60 1158.40 L 513.30 1159.80 L 516.70 1161.80 L 519.70 1164.20 L 521.20 1166.10 L 523.20 1170.20 L 524.00 1173.60 L 524.30 1180.60 L 524.00 1184.10 L 522.90 1190.40 L 519.70 1202.90 L 516.70 1212.10 L 511.40 1225.20 L 507.70 1231.70 L 503.80 1236.10 L 501.60 1237.90 L 499.00 1239.30 L 496.20 1240.30 L 493.20 1240.50 L 490.20 1240.30 L 484.30 1238.80 L 481.60 1237.40 L 479.20 1235.80 L 477.00 1233.70 L 475.20 1231.40 L 473.80 1228.60 L 472.60 1224.40 L 471.90 1220.20 L 471.80 1215.90 L 472.70 1207.20 L 475.30 1195.10 L 477.70 1187.30 L 480.60 1179.60 L 483.90 1172.20 L 487.40 1166.40 L 489.50 1163.70 L 493.70 1160.00 L 497.90 1158.20 Z" fill="#fdfdfd" fill-rule="nonzero" node-id="79" stroke="none" target-height="83" target-width="52.5" target-x="471.8" target-y="1157.5"></path><path d="M 701.80 68.60 L 707.50 68.10 L 713.20 68.00 L 719.10 68.30 L 724.90 69.10 L 730.50 70.50 L 735.90 72.40 L 739.80 74.20 L 743.50 76.40 L 746.90 78.90 L 750.20 81.90 L 753.80 85.60 L 756.90 89.60 L 759.50 94.00 L 761.60 98.70 L 763.20 103.60 L 764.30 108.60 L 766.00 123.90 L 766.30 131.60 L 766.30 143.20 L 765.90 154.70 L 765.10 162.70 L 763.70 170.70 L 762.50 175.90 L 760.80 181.00 L 758.80 185.90 L 756.40 190.60 L 753.40 195.00 L 749.80 199.10 L 745.70 202.50 L 741.30 205.40 L 736.60 207.70 L 731.60 209.50 L 726.50 210.90 L 721.30 211.80 L 710.70 212.60 L 700.70 212.30 L 696.10 211.60 L 691.50 210.50 L 687.00 209.00 L 682.70 207.10 L 678.50 204.90 L 674.60 202.30 L 670.90 199.30 L 667.60 196.00 L 664.60 192.40 L 662.10 188.50 L 659.90 184.20 L 658.00 178.70 L 656.50 173.20 L 655.40 167.50 L 654.40 159.00 L 654.10 150.30 L 654.30 133.00 L 655.60 119.60 L 656.50 112.80 L 657.90 106.10 L 659.10 101.70 L 662.50 93.50 L 664.70 89.70 L 667.40 86.00 L 670.50 82.60 L 673.30 79.80 L 679.60 75.30 L 686.60 71.90 L 690.30 70.70 L 696.00 69.30 L 701.80 68.60 Z M 703.30 98.30 L 700.50 99.70 L 698.20 101.60 L 696.30 103.80 L 693.40 109.00 L 691.30 116.40 L 690.50 120.80 L 689.50 131.80 L 689.00 143.00 L 689.10 150.40 L 689.50 157.80 L 690.40 165.10 L 691.20 168.50 L 692.50 171.90 L 694.20 175.00 L 696.30 177.70 L 698.00 179.30 L 702.20 181.60 L 706.20 182.30 L 710.40 182.50 L 713.30 182.20 L 718.50 180.70 L 721.00 179.40 L 723.10 177.70 L 725.00 175.60 L 726.50 173.10 L 728.60 167.80 L 729.50 163.60 L 730.90 150.60 L 731.40 126.70 L 730.80 115.60 L 729.20 109.20 L 727.90 106.30 L 726.20 103.60 L 723.90 101.30 L 721.90 99.90 L 717.50 98.10 L 714.00 97.40 L 710.40 97.30 L 703.30 98.30 Z" fill="#010101" fill-rule="nonzero" node-id="81" stroke="none" target-height="144.6" target-width="112.20001" target-x="654.1" target-y="68"></path><path d="M 581.30 79.70 L 614.90 74.70 L 636.30 195.30 L 637.60 203.00 L 638.40 210.70 L 604.70 215.90 L 595.50 160.40 L 561.70 165.90 L 569.30 207.50 L 571.60 221.50 L 545.80 225.50 L 537.10 226.50 L 512.60 90.50 L 547.20 85.20 L 555.80 135.40 L 572.80 132.80 L 589.70 129.90 L 583.20 92.30 L 581.30 79.70 Z" fill="#010101" fill-rule="nonzero" node-id="83" stroke="none" target-height="151.8" target-width="125.80005" target-x="512.6" target-y="74.7"></path><path d="M 830.00 91.70 L 834.80 90.70 L 839.70 90.10 L 844.60 89.90 L 854.40 90.60 L 859.30 91.50 L 866.50 93.30 L 873.50 95.60 L 879.30 98.10 L 884.90 101.20 L 888.40 103.70 L 891.70 106.40 L 894.70 109.30 L 897.30 112.60 L 899.40 116.20 L 901.10 120.20 L 902.90 126.50 L 904.10 132.90 L 904.70 139.30 L 904.50 152.30 L 903.80 158.80 L 902.20 168.50 L 900.30 178.00 L 898.20 185.90 L 893.70 198.90 L 888.80 208.60 L 885.80 213.10 L 882.40 217.30 L 878.50 221.20 L 874.90 224.20 L 871.10 226.70 L 867.00 228.70 L 862.60 230.20 L 858.20 231.30 L 853.60 232.00 L 844.40 232.10 L 833.90 230.60 L 828.10 229.30 L 822.20 227.50 L 816.60 225.30 L 811.30 222.60 L 806.20 219.30 L 802.60 216.60 L 799.40 213.50 L 796.40 210.20 L 793.60 206.50 L 791.60 203.00 L 790.00 199.40 L 788.80 195.70 L 787.40 187.90 L 787.10 183.90 L 787.50 172.00 L 788.60 162.60 L 790.30 153.40 L 792.50 144.20 L 795.10 135.10 L 798.30 126.20 L 803.80 113.60 L 808.70 106.30 L 811.50 102.90 L 814.70 99.90 L 818.10 97.20 L 821.80 94.90 L 825.70 93.10 L 830.00 91.70 Z M 848.00 119.80 L 845.40 120.30 L 843.00 121.20 L 840.90 122.40 L 837.10 125.70 L 833.40 131.00 L 829.20 141.10 L 825.00 154.80 L 823.30 161.80 L 821.10 176.00 L 821.50 183.70 L 822.40 187.50 L 823.80 191.00 L 825.10 193.20 L 828.70 196.80 L 833.70 199.70 L 839.40 201.30 L 842.20 201.60 L 845.10 201.60 L 848.00 201.00 L 850.60 200.10 L 853.20 198.60 L 855.70 196.20 L 857.70 193.40 L 859.40 190.40 L 863.20 180.70 L 865.90 169.90 L 868.10 159.00 L 869.70 148.00 L 870.20 140.70 L 870.10 136.90 L 869.60 133.30 L 868.00 128.80 L 866.70 126.70 L 864.20 124.30 L 861.30 122.40 L 858.20 121.10 L 854.80 120.20 L 851.40 119.80 L 848.00 119.80 Z" fill="#010101" fill-rule="nonzero" node-id="85" stroke="none" target-height="142.20001" target-width="117.60004" target-x="787.1" target-y="89.9"></path><path d="M 424.30 115.10 L 429.00 113.70 L 433.80 112.80 L 438.70 112.40 L 443.60 112.40 L 448.50 113.00 L 453.30 113.90 L 458.00 115.30 L 462.60 117.10 L 467.00 119.40 L 471.50 122.60 L 475.70 126.20 L 479.40 130.30 L 482.80 134.70 L 485.70 139.40 L 488.00 144.50 L 457.60 158.30 L 453.20 151.80 L 450.60 148.80 L 447.70 146.20 L 445.50 144.70 L 440.60 142.80 L 437.40 142.50 L 434.20 142.80 L 431.10 143.70 L 428.00 145.00 L 425.30 146.70 L 422.80 148.90 L 420.60 151.40 L 419.00 154.10 L 417.80 157.00 L 417.30 159.30 L 417.40 164.10 L 418.10 166.70 L 422.20 177.60 L 426.90 188.40 L 437.40 209.30 L 442.10 216.90 L 446.00 221.30 L 448.40 223.20 L 451.50 224.50 L 454.70 225.30 L 458.00 225.40 L 461.30 225.10 L 464.50 224.20 L 467.60 222.90 L 470.50 221.20 L 473.00 219.10 L 475.20 216.60 L 477.30 212.40 L 477.70 210.10 L 478.00 206.60 L 477.70 203.10 L 476.50 196.10 L 498.90 186.50 L 506.20 182.90 L 508.10 187.70 L 509.70 192.70 L 510.70 197.90 L 511.20 203.00 L 511.20 206.50 L 510.20 213.30 L 508.80 218.50 L 506.90 223.30 L 504.40 227.80 L 501.50 232.10 L 498.20 236.10 L 494.40 239.80 L 490.40 243.10 L 486.10 246.00 L 475.40 251.80 L 468.80 254.50 L 464.30 255.90 L 459.70 256.90 L 455.10 257.50 L 450.50 257.60 L 445.90 257.10 L 437.10 254.60 L 433.10 253.00 L 429.40 250.90 L 425.90 248.50 L 421.50 244.90 L 417.40 240.90 L 413.70 236.50 L 407.30 226.90 L 394.70 202.50 L 388.90 189.20 L 386.70 182.30 L 385.60 177.60 L 384.40 168.00 L 384.40 162.70 L 385.00 157.40 L 386.00 152.20 L 387.60 147.10 L 389.70 142.20 L 392.30 137.60 L 395.00 134.10 L 401.30 128.00 L 406.60 124.00 L 412.20 120.60 L 418.20 117.60 L 424.30 115.10 Z" fill="#010101" fill-rule="nonzero" node-id="87" stroke="none" target-height="145.20001" target-width="126.80002" target-x="384.4" target-y="112.4"></path><path d="M 934.40 181.90 L 933.60 177.20 L 933.40 172.60 L 933.90 167.90 L 934.90 163.30 L 936.50 158.80 L 938.60 154.60 L 941.20 150.50 L 944.10 146.80 L 947.40 143.40 L 951.20 140.40 L 955.10 138.00 L 959.40 136.00 L 966.10 134.20 L 969.60 133.80 L 977.70 134.20 L 986.40 135.80 L 992.80 137.80 L 999.00 140.30 L 1005.00 143.30 L 1014.10 148.70 L 1020.30 153.80 L 1025.50 159.90 L 1027.70 163.20 L 1029.40 166.80 L 1030.80 170.60 L 1032.20 177.40 L 1032.50 183.30 L 1031.90 187.60 L 1030.90 191.90 L 1028.10 200.30 L 1013.50 193.70 L 999.20 186.70 L 999.30 179.20 L 998.30 174.50 L 995.80 170.20 L 994.10 168.40 L 990.00 165.60 L 985.30 163.90 L 982.90 163.60 L 978.10 164.10 L 975.90 164.90 L 973.80 166.20 L 972.00 168.00 L 970.80 169.90 L 970.10 171.90 L 970.00 176.00 L 971.10 180.10 L 972.70 182.90 L 978.80 189.50 L 996.40 205.40 L 1002.90 212.70 L 1007.10 219.40 L 1008.80 223.50 L 1010.00 227.60 L 1010.40 231.90 L 1010.40 236.20 L 1009.80 240.50 L 1008.80 244.70 L 1005.60 252.80 L 1003.50 256.60 L 1000.70 260.40 L 997.50 263.80 L 993.90 266.80 L 990.00 269.50 L 985.90 271.70 L 981.60 273.60 L 974.20 275.30 L 970.40 275.60 L 964.70 275.40 L 959.00 274.60 L 953.40 273.50 L 941.70 270.10 L 935.80 267.80 L 930.00 264.90 L 925.80 262.40 L 921.90 259.50 L 918.30 256.40 L 914.90 252.90 L 911.90 249.40 L 909.40 245.50 L 907.30 241.40 L 905.20 234.90 L 904.70 231.50 L 904.80 224.50 L 906.20 217.70 L 909.40 207.60 L 940.50 222.80 L 939.80 230.50 L 940.10 232.30 L 940.90 234.10 L 942.80 236.80 L 945.00 239.10 L 947.60 241.10 L 950.50 242.60 L 953.60 243.80 L 956.80 244.50 L 960.10 244.70 L 963.30 244.50 L 966.40 243.80 L 968.70 242.80 L 970.80 241.20 L 972.40 239.30 L 973.60 237.00 L 974.30 234.60 L 974.40 232.20 L 973.40 229.00 L 972.40 227.50 L 965.40 220.40 L 950.60 206.90 L 943.80 199.50 L 940.80 195.50 L 938.20 191.20 L 936.10 186.70 L 934.40 181.90 Z" fill="#010101" fill-rule="nonzero" node-id="89" stroke="none" target-height="141.8" target-width="127.79999" target-x="904.7" target-y="133.8"></path><path d="M 1043.60 238.50 L 1070.40 202.70 L 1079.70 191.00 L 1115.40 218.40 L 1151.70 245.30 L 1138.30 263.30 L 1133.60 269.20 L 1116.30 256.40 L 1094.20 239.40 L 1091.60 237.50 L 1088.80 236.00 L 1076.10 253.50 L 1117.70 284.20 L 1113.60 290.40 L 1100.10 308.20 L 1078.90 292.70 L 1058.20 276.70 L 1050.10 287.40 L 1042.40 298.40 L 1087.50 332.00 L 1069.00 356.30 L 1061.40 351.30 L 1011.20 313.30 L 997.00 302.20 L 1008.40 286.10 L 1043.60 238.50 Z" fill="#010101" fill-rule="nonzero" node-id="91" stroke="none" target-height="165.29999" target-width="154.69995" target-x="997" target-y="191"></path><path d="M 243.00 225.00 L 271.10 203.00 L 336.50 288.20 L 358.50 316.40 L 345.20 327.30 L 338.30 332.50 L 331.10 337.20 L 243.00 225.00 Z" fill="#010101" fill-rule="nonzero" node-id="93" stroke="none" target-height="134.20001" target-width="115.5" target-x="243" target-y="203"></path><path d="M 679.80 224.60 L 691.30 223.20 L 703.00 223.40 L 714.50 225.00 L 720.20 226.40 L 731.30 230.00 L 740.90 234.70 L 752.20 242.00 L 758.60 246.80 L 773.20 259.20 L 775.90 260.60 L 797.20 269.70 L 807.80 274.50 L 818.10 279.70 L 831.50 287.40 L 838.00 291.60 L 846.40 297.80 L 854.50 304.30 L 862.30 311.20 L 869.80 318.40 L 877.00 325.90 L 883.90 333.60 L 890.40 341.70 L 896.60 350.10 L 901.40 357.50 L 910.10 372.70 L 913.90 380.60 L 918.60 391.40 L 922.70 402.30 L 926.40 413.50 L 929.60 426.30 L 932.40 439.20 L 934.70 452.20 L 936.10 462.10 L 937.70 481.80 L 937.80 501.70 L 937.20 511.50 L 936.20 521.40 L 934.00 536.20 L 933.80 541.10 L 934.80 560.80 L 934.80 565.70 L 933.60 578.80 L 932.20 586.80 L 930.20 594.70 L 927.80 602.40 L 924.80 609.90 L 921.30 617.30 L 917.40 624.40 L 913.10 631.20 L 908.30 637.90 L 903.20 644.10 L 897.70 650.10 L 891.80 655.80 L 885.40 660.80 L 871.90 669.90 L 864.80 674.00 L 855.10 679.00 L 845.20 683.50 L 835.10 687.60 L 852.10 701.70 L 857.90 706.10 L 863.70 709.00 L 869.70 711.20 L 875.90 713.00 L 894.90 717.10 L 903.80 718.60 L 912.70 719.70 L 918.70 720.10 L 924.60 720.20 L 934.70 719.50 L 938.80 718.80 L 946.60 716.30 L 953.90 712.60 L 960.30 708.20 L 976.00 693.40 L 980.60 689.80 L 982.10 689.00 L 983.70 688.50 L 985.40 688.50 L 988.70 690.90 L 991.50 693.80 L 996.50 700.10 L 1003.30 694.70 L 1006.90 692.30 L 1010.70 690.30 L 1013.70 694.20 L 1016.20 698.40 L 1020.00 707.30 L 1028.30 706.80 L 1031.00 714.50 L 1035.50 730.20 L 1037.10 738.20 L 1038.30 746.30 L 1039.00 754.40 L 1039.30 762.50 L 1039.00 770.60 L 1038.20 778.80 L 1035.80 792.40 L 1031.30 808.80 L 1029.70 824.80 L 1028.00 834.40 L 1025.80 843.90 L 1023.00 853.20 L 1016.50 871.60 L 1007.80 891.90 L 1002.30 902.90 L 998.30 910.10 L 993.80 916.90 L 989.00 923.50 L 983.30 930.30 L 971.40 943.30 L 952.40 961.70 L 943.70 969.60 L 934.70 977.10 L 925.40 984.30 L 915.80 991.00 L 905.90 997.30 L 895.70 1003.20 L 934.70 1021.00 L 947.50 1027.40 L 954.80 1031.80 L 959.30 1035.50 L 962.70 1039.90 L 963.70 1042.50 L 964.40 1045.50 L 962.40 1048.20 L 960.00 1050.70 L 942.10 1066.00 L 909.30 1093.70 L 902.00 1101.50 L 897.40 1108.80 L 874.40 1107.50 L 866.70 1107.50 L 854.80 1107.90 L 831.00 1109.60 L 809.60 1104.40 L 762.80 1094.60 L 754.50 1092.20 L 750.00 1065.90 L 746.80 1039.30 L 726.00 1039.30 L 705.20 1038.80 L 691.40 1038.00 L 677.60 1036.80 L 663.80 1035.10 L 639.20 1054.10 L 589.40 1091.40 L 585.10 1091.00 L 580.90 1090.00 L 551.80 1080.30 L 538.90 1076.70 L 512.80 1070.80 L 475.60 1063.50 L 470.50 1061.50 L 468.80 1058.40 L 467.50 1053.00 L 464.80 1046.00 L 462.30 1040.90 L 459.40 1036.10 L 454.60 1029.10 L 449.30 1022.30 L 438.30 1009.30 L 445.40 997.10 L 448.10 993.30 L 449.80 991.40 L 451.90 990.00 L 456.60 988.20 L 478.70 982.70 L 531.10 972.00 L 520.50 959.50 L 514.70 951.90 L 509.40 943.90 L 504.60 935.60 L 500.30 927.00 L 496.50 918.20 L 493.30 909.20 L 490.60 900.00 L 488.30 890.70 L 486.80 881.40 L 485.70 872.20 L 484.60 853.50 L 483.60 853.10 L 483.40 852.70 L 483.60 852.20 L 484.60 851.80 L 484.80 846.40 L 460.10 847.20 L 457.50 847.90 L 455.30 849.20 L 453.30 850.80 L 447.70 856.50 L 445.60 858.10 L 437.20 861.90 L 431.10 864.20 L 424.80 866.20 L 418.50 867.70 L 412.00 868.70 L 405.50 869.00 L 402.20 867.20 L 399.20 865.10 L 396.50 862.40 L 394.00 859.50 L 392.00 856.40 L 390.30 853.10 L 384.40 838.80 L 381.50 828.90 L 380.60 823.90 L 375.80 822.40 L 371.40 820.40 L 367.20 818.00 L 363.20 815.20 L 359.40 812.00 L 355.90 808.60 L 349.70 801.00 L 344.60 792.90 L 342.60 788.60 L 339.60 779.60 L 338.70 774.90 L 338.10 770.20 L 337.90 765.50 L 338.20 760.80 L 338.90 756.10 L 340.00 751.60 L 341.60 747.20 L 343.70 742.90 L 318.30 751.90 L 309.60 754.30 L 297.60 726.30 L 292.20 712.10 L 303.50 706.30 L 338.40 691.00 L 292.70 599.20 L 280.20 573.30 L 274.80 559.90 L 272.00 550.80 L 269.60 541.60 L 267.80 532.30 L 266.40 522.80 L 265.50 513.40 L 265.10 503.90 L 265.20 494.40 L 265.70 484.80 L 266.70 475.30 L 268.20 465.90 L 270.10 456.60 L 272.60 447.40 L 275.40 438.30 L 278.80 429.40 L 282.50 420.70 L 286.80 412.10 L 290.40 405.90 L 298.50 394.00 L 303.00 388.40 L 306.40 393.30 L 330.80 433.80 L 345.30 459.40 L 354.60 476.70 L 363.40 494.30 L 371.70 512.10 L 380.70 532.50 L 389.20 553.00 L 405.60 594.30 L 417.60 625.90 L 429.10 657.70 L 444.30 653.90 L 460.60 687.90 L 462.50 692.60 L 463.90 697.50 L 471.80 698.50 L 487.50 699.70 L 511.20 700.00 L 534.90 699.40 L 539.50 691.60 L 521.80 685.40 L 513.00 681.90 L 504.50 677.90 L 496.10 673.50 L 488.00 668.80 L 480.20 663.60 L 472.70 657.90 L 465.60 651.70 L 459.90 645.80 L 454.50 639.60 L 449.50 633.20 L 444.90 626.50 L 440.60 619.50 L 436.70 612.40 L 433.20 605.00 L 430.20 597.40 L 428.10 590.50 L 426.50 583.60 L 425.60 576.50 L 425.20 569.40 L 425.30 562.30 L 426.10 555.20 L 427.30 548.10 L 429.10 541.20 L 431.40 534.50 L 435.00 525.70 L 446.50 499.70 L 449.50 490.30 L 450.50 485.40 L 451.20 480.50 L 451.50 475.60 L 451.30 470.70 L 448.60 451.80 L 448.30 448.00 L 448.20 440.20 L 448.50 432.40 L 449.30 424.60 L 450.40 416.90 L 452.50 406.70 L 455.20 396.60 L 458.40 386.70 L 462.20 376.90 L 466.30 367.30 L 474.90 350.30 L 484.10 335.50 L 489.20 328.50 L 494.70 321.70 L 506.90 308.20 L 513.70 301.50 L 520.80 295.20 L 528.20 289.30 L 535.90 283.80 L 543.90 278.70 L 552.10 273.90 L 560.60 269.50 L 578.00 261.70 L 586.80 258.40 L 604.90 252.80 L 614.10 250.60 L 632.60 247.20 L 630.20 243.00 L 628.30 238.60 L 637.20 236.20 L 646.20 234.50 L 655.30 233.30 L 664.40 232.60 L 673.60 232.50 L 682.70 232.70 L 681.40 230.90 L 680.60 228.90 L 679.80 224.60 Z M 706.80 238.80 L 714.90 247.30 L 718.30 252.10 L 717.10 253.40 L 715.80 254.10 L 712.60 254.30 L 692.20 250.00 L 683.50 248.60 L 668.90 247.50 L 657.20 248.00 L 672.80 252.50 L 682.90 256.50 L 687.70 259.10 L 687.30 261.90 L 659.90 262.20 L 638.90 264.00 L 627.10 265.70 L 615.40 267.90 L 606.60 270.00 L 589.60 275.20 L 581.20 278.40 L 573.00 282.00 L 565.00 285.90 L 557.20 290.30 L 541.30 300.80 L 533.30 307.00 L 525.60 313.60 L 518.30 320.70 L 511.40 328.10 L 504.90 335.80 L 498.70 343.90 L 493.00 352.30 L 487.80 360.90 L 483.00 370.30 L 478.80 380.00 L 475.00 389.90 L 470.50 405.10 L 467.30 420.50 L 466.40 428.40 L 465.80 436.20 L 465.70 444.10 L 466.10 452.10 L 466.50 456.50 L 468.40 469.80 L 468.70 474.20 L 467.80 484.40 L 466.80 490.00 L 463.80 501.10 L 459.70 511.70 L 452.10 528.50 L 448.60 537.10 L 445.70 545.80 L 444.20 551.70 L 443.20 557.80 L 442.60 563.90 L 442.50 569.60 L 442.90 575.20 L 443.70 580.60 L 444.90 586.10 L 447.00 593.20 L 449.70 600.10 L 453.00 606.90 L 456.70 613.40 L 460.80 619.60 L 465.20 625.60 L 470.50 631.80 L 476.20 637.50 L 482.20 642.90 L 488.60 647.90 L 495.30 652.50 L 502.20 656.80 L 509.40 660.70 L 524.20 667.40 L 534.30 671.20 L 544.50 674.50 L 554.90 677.30 L 575.90 681.90 L 602.60 686.00 L 618.60 688.10 L 634.60 689.80 L 666.60 692.40 L 699.30 693.60 L 716.00 693.70 L 732.70 693.10 L 745.20 692.10 L 757.70 690.70 L 770.00 688.90 L 782.30 686.50 L 796.70 682.80 L 810.90 678.60 L 829.60 672.00 L 838.70 668.20 L 847.70 664.00 L 856.40 659.40 L 865.00 654.40 L 875.90 646.70 L 881.10 642.50 L 886.00 638.00 L 890.50 633.10 L 898.50 622.40 L 902.00 616.80 L 908.10 605.10 L 910.60 598.90 L 914.40 586.30 L 915.80 579.80 L 916.80 573.30 L 917.30 566.70 L 917.40 560.10 L 916.40 539.10 L 916.60 535.60 L 918.90 520.40 L 920.00 508.80 L 920.60 497.10 L 920.70 485.30 L 920.30 473.50 L 919.40 461.90 L 918.00 450.20 L 916.10 438.60 L 913.90 428.80 L 911.20 419.20 L 908.00 409.80 L 904.30 400.50 L 900.20 391.30 L 895.80 382.40 L 891.00 373.60 L 881.30 357.90 L 876.40 351.00 L 871.10 344.50 L 865.50 338.20 L 853.40 326.40 L 843.80 318.10 L 833.90 310.20 L 825.80 304.40 L 817.40 299.00 L 808.70 293.90 L 799.80 289.30 L 790.80 285.00 L 766.20 274.90 L 740.70 265.40 L 736.80 263.20 L 736.40 262.50 L 736.20 260.90 L 736.60 260.20 L 737.30 259.70 L 741.10 259.40 L 744.90 259.70 L 752.40 260.80 L 745.30 254.70 L 741.60 251.80 L 737.60 249.40 L 727.70 244.70 L 717.50 240.90 L 712.20 239.50 L 706.80 238.80 Z M 301.50 413.70 L 297.00 423.20 L 293.00 432.90 L 289.60 442.80 L 286.70 452.90 L 284.40 463.20 L 282.70 473.50 L 281.60 483.90 L 281.00 494.40 L 281.00 504.90 L 281.60 515.40 L 282.80 525.80 L 284.60 536.20 L 286.50 544.40 L 288.90 552.50 L 292.00 560.50 L 295.40 568.20 L 331.90 643.90 L 352.40 685.40 L 414.60 663.30 L 406.40 640.80 L 368.50 542.60 L 362.20 527.00 L 355.20 511.80 L 347.10 495.00 L 338.50 478.40 L 329.60 462.10 L 301.50 413.70 Z M 386.10 688.50 L 335.10 708.20 L 309.40 717.40 L 318.90 738.60 L 323.50 737.10 L 370.30 718.70 L 381.60 714.90 L 389.20 712.80 L 397.00 711.10 L 404.90 710.00 L 407.30 703.90 L 410.90 698.50 L 415.60 694.00 L 418.30 692.20 L 421.20 690.70 L 426.90 688.90 L 432.00 688.60 L 439.60 689.90 L 447.10 692.00 L 436.90 670.50 L 424.10 674.60 L 386.10 688.50 Z M 733.60 710.70 L 715.80 711.30 L 698.10 711.50 L 680.30 711.20 L 662.60 710.40 L 644.80 709.20 L 627.10 707.50 L 609.50 705.40 L 592.00 702.80 L 574.50 699.70 L 557.10 696.10 L 544.10 717.90 L 532.40 740.20 L 527.20 751.10 L 522.40 762.20 L 518.20 773.40 L 514.40 784.80 L 511.10 796.40 L 508.40 808.10 L 506.20 819.90 L 504.50 831.90 L 503.50 841.00 L 503.00 850.20 L 503.00 859.40 L 503.50 868.60 L 504.50 877.70 L 506.00 886.70 L 508.00 895.70 L 510.60 904.50 L 513.60 913.20 L 516.60 920.20 L 523.50 933.90 L 527.60 940.30 L 533.70 948.50 L 542.50 958.30 L 548.20 963.90 L 554.30 969.10 L 560.70 974.00 L 574.00 983.10 L 585.70 989.80 L 597.70 996.20 L 605.90 1000.20 L 614.20 1003.70 L 631.40 1009.80 L 640.30 1012.20 L 658.30 1016.10 L 676.50 1018.70 L 690.30 1019.90 L 711.00 1021.00 L 725.00 1021.20 L 736.00 1021.70 L 767.50 1019.80 L 780.30 1018.00 L 791.90 1015.40 L 808.00 1013.10 L 822.50 1010.20 L 836.90 1006.80 L 846.40 1004.20 L 855.80 1001.20 L 865.10 997.70 L 875.00 993.60 L 884.60 988.90 L 894.00 983.70 L 903.20 978.20 L 920.90 966.00 L 927.90 960.50 L 934.60 954.60 L 941.10 948.40 L 959.90 929.20 L 974.20 913.20 L 978.60 907.60 L 986.80 895.80 L 990.50 889.70 L 993.80 883.40 L 996.70 876.80 L 1004.90 856.30 L 1007.40 849.30 L 1011.40 835.20 L 1012.80 828.00 L 1013.70 820.70 L 1014.00 813.30 L 1013.50 802.60 L 1009.60 777.00 L 1009.50 774.90 L 1010.10 772.80 L 1011.70 772.60 L 1014.20 773.30 L 1015.80 774.40 L 1017.20 776.00 L 1022.10 783.10 L 1022.70 772.70 L 1022.80 762.30 L 1022.50 755.30 L 1021.70 748.40 L 1020.50 741.60 L 1017.80 744.00 L 1014.70 746.00 L 1011.30 747.50 L 1007.80 748.50 L 1004.80 746.90 L 1007.10 729.00 L 1007.20 724.60 L 1006.80 720.10 L 996.30 732.30 L 989.80 738.30 L 983.90 742.20 L 980.80 739.20 L 983.60 724.00 L 983.90 718.90 L 983.60 715.60 L 982.90 712.20 L 981.80 708.90 L 975.70 716.00 L 967.00 723.90 L 961.30 728.00 L 956.80 730.80 L 952.10 733.00 L 947.10 734.70 L 941.90 736.00 L 931.50 737.50 L 922.10 737.40 L 910.50 736.00 L 889.70 732.50 L 897.50 735.80 L 909.10 741.50 L 920.90 746.60 L 932.80 751.30 L 973.90 765.60 L 978.30 767.80 L 981.00 769.60 L 985.80 773.80 L 989.70 779.00 L 991.10 781.90 L 992.40 785.90 L 993.10 790.00 L 993.30 794.20 L 992.60 802.50 L 988.70 818.90 L 988.20 822.20 L 988.30 825.50 L 990.50 838.70 L 990.50 842.00 L 989.90 845.30 L 988.40 848.80 L 986.40 852.10 L 981.30 857.80 L 975.40 862.60 L 975.30 866.20 L 974.80 869.70 L 973.90 873.10 L 972.70 876.30 L 970.50 880.30 L 967.90 884.10 L 964.80 887.70 L 961.40 891.10 L 957.80 894.10 L 950.20 899.30 L 941.90 903.20 L 935.40 905.40 L 928.70 907.10 L 915.20 909.40 L 896.20 911.10 L 886.70 911.40 L 877.20 911.20 L 868.80 910.10 L 860.40 908.60 L 852.10 906.60 L 844.00 904.00 L 833.70 899.50 L 828.70 896.60 L 820.90 891.50 L 813.50 886.00 L 806.50 880.10 L 799.70 873.70 L 793.40 867.00 L 787.40 859.90 L 782.00 852.50 L 776.90 844.70 L 771.40 833.00 L 767.10 820.80 L 764.20 808.20 L 763.10 799.70 L 763.30 791.00 L 764.10 786.80 L 765.30 782.60 L 767.20 781.70 L 769.50 782.30 L 772.10 784.60 L 775.20 789.60 L 778.60 797.90 L 784.30 817.40 L 789.30 830.30 L 792.40 836.50 L 795.90 842.40 L 799.80 848.10 L 807.30 856.70 L 817.90 866.20 L 829.60 875.60 L 840.50 882.70 L 846.30 885.70 L 852.40 888.20 L 858.60 890.20 L 867.40 892.20 L 876.40 893.70 L 882.50 894.20 L 888.50 894.30 L 911.40 892.70 L 919.70 891.60 L 927.90 890.00 L 933.30 888.50 L 938.50 886.50 L 943.70 884.20 L 950.00 880.20 L 952.80 877.70 L 955.20 874.90 L 956.40 872.80 L 957.30 870.50 L 958.00 866.40 L 957.30 863.60 L 952.40 855.80 L 953.60 854.30 L 956.30 852.20 L 958.70 851.20 L 966.40 849.00 L 968.40 847.90 L 971.70 844.90 L 973.10 843.10 L 974.00 841.10 L 974.60 839.00 L 971.30 832.30 L 970.50 830.10 L 970.10 827.70 L 970.40 825.20 L 971.80 819.90 L 975.10 809.50 L 977.30 800.70 L 978.00 793.50 L 977.80 791.00 L 977.10 788.70 L 975.90 786.60 L 974.30 784.70 L 972.40 783.30 L 970.10 782.30 L 944.30 773.60 L 931.50 769.00 L 918.90 764.00 L 902.40 756.50 L 894.40 752.30 L 883.10 745.60 L 872.20 738.40 L 861.50 730.90 L 840.80 714.80 L 830.70 706.60 L 820.20 697.00 L 816.40 694.10 L 802.90 698.20 L 789.20 701.80 L 775.50 704.90 L 761.60 707.50 L 747.60 709.40 L 733.60 710.70 Z M 429.20 704.70 L 425.00 707.40 L 423.20 709.20 L 421.20 712.70 L 420.80 716.10 L 428.00 724.30 L 431.30 728.70 L 433.90 733.80 L 434.80 736.60 L 435.60 740.80 L 435.80 745.10 L 435.60 749.40 L 434.90 753.70 L 433.80 757.50 L 428.30 768.00 L 429.70 771.40 L 446.80 804.00 L 458.10 827.20 L 485.90 828.50 L 487.20 817.60 L 489.10 806.70 L 491.30 796.00 L 494.10 785.30 L 497.30 774.70 L 500.90 764.30 L 505.00 754.10 L 509.50 744.10 L 516.80 730.70 L 524.70 717.60 L 499.90 717.90 L 487.40 717.60 L 475.10 716.60 L 466.90 715.50 L 458.80 714.00 L 450.70 711.90 L 447.10 710.80 L 436.60 706.40 L 433.00 705.30 L 429.20 704.70 Z M 395.90 727.90 L 390.40 728.90 L 384.90 730.30 L 379.50 732.20 L 374.40 734.60 L 368.00 738.70 L 365.10 741.10 L 362.50 743.90 L 360.10 747.00 L 358.00 750.30 L 355.60 756.30 L 354.90 761.40 L 354.90 766.70 L 355.50 772.00 L 356.60 777.10 L 358.40 782.20 L 360.60 786.90 L 363.30 791.50 L 366.50 795.70 L 370.10 799.60 L 374.20 803.00 L 377.80 805.40 L 381.60 807.30 L 385.80 808.60 L 390.00 809.40 L 394.30 809.70 L 398.60 809.30 L 396.20 804.10 L 403.50 800.70 L 406.90 798.60 L 410.00 796.00 L 413.30 791.90 L 415.10 787.70 L 415.20 786.00 L 414.20 782.60 L 412.60 779.50 L 405.80 779.80 L 399.10 779.10 L 395.80 778.10 L 392.80 776.60 L 391.20 773.00 L 395.10 769.50 L 407.90 762.80 L 411.10 760.60 L 415.60 754.90 L 417.40 751.70 L 418.60 748.30 L 419.10 746.00 L 419.10 743.70 L 417.90 738.80 L 416.80 736.70 L 413.80 733.20 L 409.90 730.60 L 406.50 729.10 L 403.00 728.20 L 399.40 727.80 L 395.90 727.90 Z M 419.70 809.70 L 418.20 814.30 L 417.10 816.40 L 415.50 818.20 L 411.90 820.90 L 406.60 822.80 L 403.20 823.40 L 396.50 824.10 L 398.00 830.20 L 400.00 836.20 L 402.50 842.10 L 405.50 847.70 L 407.40 850.30 L 410.20 852.00 L 411.70 852.30 L 419.30 850.70 L 425.10 848.60 L 428.80 846.80 L 432.20 844.70 L 435.30 842.20 L 439.20 837.70 L 442.00 832.20 L 426.60 803.10 L 419.70 809.70 Z M 540.40 985.20 L 540.00 985.70 L 528.00 988.50 L 529.20 988.70 L 520.80 989.90 L 508.20 992.90 L 469.70 1001.20 L 452.30 1004.00 L 455.40 1007.70 L 465.20 1018.50 L 471.20 1026.10 L 473.20 1029.70 L 476.30 1037.30 L 477.30 1041.30 L 478.60 1049.40 L 485.40 1049.90 L 492.10 1050.80 L 505.60 1053.10 L 519.70 1055.80 L 543.10 1061.20 L 561.50 1066.80 L 570.60 1070.10 L 579.40 1073.70 L 588.10 1077.80 L 593.10 1072.80 L 603.80 1063.80 L 620.90 1051.50 L 634.60 1042.00 L 648.50 1032.90 L 636.20 1029.60 L 624.10 1025.80 L 612.10 1021.40 L 600.30 1016.60 L 588.70 1011.20 L 577.40 1005.30 L 566.40 998.80 L 555.80 991.90 L 545.40 984.30 L 540.40 985.20 Z M 870.30 1014.30 L 857.60 1018.80 L 844.80 1022.80 L 831.80 1026.30 L 818.70 1029.40 L 792.20 1034.40 L 765.50 1037.90 L 765.10 1048.50 L 765.70 1080.40 L 777.40 1081.80 L 802.10 1086.80 L 815.00 1089.60 L 821.40 1091.40 L 830.60 1094.40 L 833.60 1095.00 L 851.70 1092.80 L 860.80 1092.10 L 870.00 1091.90 L 879.10 1092.10 L 888.20 1092.70 L 906.70 1077.40 L 927.50 1061.60 L 934.30 1056.10 L 942.70 1048.20 L 946.60 1043.80 L 940.30 1040.30 L 933.70 1037.30 L 909.80 1027.40 L 877.30 1012.90 L 874.50 1013.00 L 870.30 1014.30 Z" fill="#010101" fill-rule="nonzero" node-id="95" stroke="none" target-height="886.39996" target-width="774.2001" target-x="265.1" target-y="223.2"></path><path d="M 545.30 422.50 L 550.80 422.40 L 553.50 422.80 L 557.40 424.00 L 561.20 425.80 L 564.70 428.10 L 567.90 430.70 L 570.20 433.20 L 572.10 436.00 L 573.70 438.90 L 575.90 445.30 L 577.30 453.70 L 577.60 458.70 L 577.20 464.70 L 576.30 470.70 L 575.00 476.60 L 573.30 482.40 L 571.00 488.00 L 568.40 493.50 L 565.20 498.60 L 561.70 503.50 L 557.60 508.00 L 554.70 510.70 L 551.60 513.10 L 544.60 516.80 L 540.90 518.10 L 537.10 519.10 L 533.10 519.60 L 529.20 519.60 L 525.30 519.30 L 522.40 518.40 L 519.70 517.10 L 517.30 515.40 L 513.30 510.90 L 511.70 508.40 L 509.00 502.10 L 507.10 493.90 L 506.20 483.80 L 506.40 473.40 L 507.80 462.70 L 509.10 457.40 L 510.90 452.30 L 513.00 447.40 L 515.60 442.80 L 518.80 438.50 L 525.70 431.50 L 529.20 428.90 L 533.00 426.70 L 536.90 424.90 L 541.00 423.50 L 545.30 422.50 Z M 523.70 450.90 L 522.60 453.50 L 521.90 456.40 L 521.90 460.30 L 522.30 462.00 L 523.20 463.60 L 524.60 464.80 L 526.50 465.70 L 529.50 465.70 L 532.30 465.20 L 535.00 464.00 L 537.40 462.40 L 539.50 460.40 L 541.40 458.00 L 542.90 455.30 L 543.90 452.50 L 544.40 449.60 L 544.50 446.60 L 544.00 443.80 L 542.80 441.00 L 540.80 440.10 L 538.80 439.60 L 536.90 439.60 L 533.20 440.70 L 531.50 441.70 L 529.10 443.50 L 527.00 445.80 L 523.70 450.90 Z" fill="#010101" fill-rule="nonzero" node-id="97" stroke="none" target-height="97.19998" target-width="71.39996" target-x="506.2" target-y="422.4"></path><path d="M 744.80 432.00 L 751.60 432.00 L 758.20 433.40 L 764.40 436.20 L 767.30 438.00 L 772.50 442.20 L 775.50 446.00 L 778.20 450.10 L 780.50 454.40 L 782.40 458.80 L 785.10 468.20 L 786.40 477.80 L 786.50 487.40 L 786.10 492.20 L 784.00 501.50 L 780.70 510.40 L 777.40 516.80 L 773.70 522.90 L 767.90 529.70 L 764.60 532.70 L 761.00 535.50 L 757.10 537.70 L 753.10 539.50 L 749.90 540.40 L 746.70 541.00 L 743.30 541.20 L 736.60 540.50 L 733.40 539.70 L 730.40 538.50 L 724.80 535.20 L 718.70 529.60 L 712.80 521.90 L 710.40 517.90 L 708.30 513.70 L 706.70 509.40 L 705.00 503.40 L 703.90 497.30 L 703.50 491.00 L 703.70 484.80 L 704.40 478.50 L 705.70 472.40 L 707.60 466.40 L 710.00 460.60 L 713.00 455.10 L 715.50 451.10 L 721.50 443.90 L 724.80 440.70 L 727.80 438.40 L 734.10 434.60 L 737.50 433.30 L 741.10 432.40 L 744.80 432.00 Z M 731.30 449.70 L 728.40 451.80 L 726.00 454.30 L 724.10 457.10 L 722.60 460.20 L 721.50 463.50 L 720.80 467.00 L 720.50 470.60 L 720.90 477.50 L 722.30 480.30 L 724.40 481.50 L 726.60 482.30 L 728.90 482.70 L 731.30 482.60 L 733.60 482.10 L 735.80 481.00 L 739.90 477.50 L 742.80 473.10 L 744.60 468.00 L 745.00 465.30 L 744.90 460.00 L 743.50 454.80 L 742.30 452.40 L 741.00 450.70 L 739.30 449.50 L 737.40 448.70 L 735.30 448.50 L 733.30 448.80 L 731.30 449.70 Z" fill="#010101" fill-rule="nonzero" node-id="99" stroke="none" target-height="109.20001" target-width="83" target-x="703.5" target-y="432"></path><path d="M 268.80 1007.90 L 300.30 1027.00 L 300.10 1030.10 L 285.50 1093.80 L 278.10 1124.00 L 351.10 1059.40 L 367.00 1068.70 L 382.70 1078.50 L 349.80 1105.60 L 291.80 1152.00 L 266.90 1171.50 L 239.50 1154.60 L 258.50 1056.70 L 268.80 1007.90 Z" fill="#010101" fill-rule="nonzero" node-id="101" stroke="none" target-height="163.59998" target-width="143.20001" target-x="239.5" target-y="1007.9"></path><path d="M 1065.00 1046.20 L 1104.90 1019.20 L 1120.90 1043.90 L 1085.80 1066.50 L 1074.30 1074.40 L 1087.40 1093.00 L 1129.60 1065.50 L 1134.90 1073.20 L 1144.70 1089.20 L 1103.10 1117.10 L 1118.20 1138.50 L 1129.50 1130.40 L 1164.30 1106.80 L 1177.40 1125.50 L 1181.30 1132.00 L 1177.70 1135.00 L 1150.90 1153.10 L 1106.60 1183.70 L 1087.20 1155.40 L 1029.60 1070.30 L 1038.30 1064.10 L 1065.00 1046.20 Z" fill="#010101" fill-rule="nonzero" node-id="103" stroke="none" target-height="164.49994" target-width="151.70007" target-x="1029.6" target-y="1019.2"></path><path d="M 404.90 1089.30 L 438.50 1104.00 L 433.90 1115.90 L 401.90 1191.20 L 385.50 1231.80 L 369.90 1224.70 L 353.90 1216.70 L 353.70 1215.40 L 354.40 1213.10 L 392.60 1120.30 L 404.90 1089.30 Z" fill="#010101" fill-rule="nonzero" node-id="105" stroke="none" target-height="142.5" target-width="84.79999" target-x="353.7" target-y="1089.3"></path><path d="M 977.70 1096.40 L 986.80 1094.00 L 991.40 1093.20 L 999.20 1092.90 L 1005.50 1094.00 L 1010.20 1095.40 L 1014.70 1097.40 L 1018.90 1099.90 L 1022.80 1102.90 L 1026.30 1106.40 L 1029.50 1110.20 L 1032.30 1114.30 L 1034.70 1118.50 L 1036.70 1123.00 L 1008.00 1135.50 L 1005.50 1131.90 L 1002.60 1128.40 L 1000.50 1126.40 L 998.10 1124.70 L 995.40 1123.40 L 992.40 1122.90 L 989.40 1122.90 L 986.40 1123.30 L 980.70 1125.20 L 975.60 1128.60 L 973.50 1130.70 L 971.70 1133.10 L 970.50 1136.00 L 969.80 1139.00 L 969.50 1142.00 L 969.60 1146.60 L 970.40 1151.20 L 973.10 1160.00 L 978.80 1173.30 L 982.00 1179.80 L 988.30 1190.00 L 994.50 1197.50 L 996.60 1199.40 L 998.90 1200.80 L 1001.40 1201.80 L 1004.10 1202.30 L 1009.60 1202.30 L 1014.90 1200.80 L 1019.80 1198.10 L 1021.80 1196.30 L 1023.60 1194.30 L 1025.60 1190.50 L 1026.50 1185.50 L 1026.40 1182.30 L 1025.60 1176.00 L 1047.40 1166.80 L 1054.80 1164.00 L 1056.50 1169.00 L 1057.60 1174.20 L 1058.30 1179.50 L 1058.30 1184.80 L 1057.80 1190.10 L 1056.70 1195.30 L 1055.40 1199.10 L 1053.90 1202.70 L 1051.90 1206.20 L 1049.60 1209.60 L 1046.50 1213.10 L 1039.50 1219.50 L 1035.70 1222.20 L 1030.20 1225.50 L 1024.60 1228.40 L 1018.80 1230.80 L 1012.70 1232.50 L 1006.40 1233.70 L 1002.20 1234.20 L 993.80 1233.90 L 989.70 1233.20 L 985.80 1231.90 L 981.90 1230.10 L 977.20 1227.30 L 973.00 1224.10 L 969.20 1220.50 L 962.40 1212.30 L 955.20 1201.00 L 951.40 1194.00 L 942.80 1176.60 L 938.00 1164.60 L 936.10 1158.40 L 934.90 1149.00 L 935.00 1144.30 L 935.50 1139.50 L 936.40 1134.90 L 937.70 1130.30 L 939.50 1126.00 L 941.80 1121.80 L 947.30 1114.40 L 950.40 1111.20 L 953.80 1108.40 L 961.30 1103.50 L 965.30 1101.50 L 977.70 1096.40 Z" fill="#010101" fill-rule="nonzero" node-id="107" stroke="none" target-height="141.29993" target-width="123.400024" target-x="934.9" target-y="1092.9"></path><path d="M 485.90 1128.80 L 491.60 1127.90 L 497.30 1127.60 L 503.00 1128.00 L 508.60 1128.90 L 514.10 1130.20 L 519.60 1132.10 L 524.90 1134.30 L 535.00 1139.70 L 538.90 1142.30 L 542.50 1145.20 L 545.90 1148.50 L 548.90 1152.00 L 551.60 1155.80 L 553.90 1159.90 L 555.80 1164.10 L 557.10 1168.60 L 557.90 1173.20 L 558.30 1178.50 L 558.00 1189.00 L 556.90 1196.80 L 555.40 1204.60 L 553.50 1212.30 L 549.40 1225.40 L 544.60 1236.30 L 541.70 1241.50 L 535.00 1251.20 L 531.10 1255.70 L 526.90 1259.80 L 522.30 1263.60 L 518.70 1266.00 L 514.90 1267.90 L 510.80 1269.50 L 506.70 1270.60 L 502.40 1271.30 L 498.10 1271.60 L 493.80 1271.50 L 489.50 1271.00 L 479.90 1268.50 L 474.60 1266.70 L 469.30 1264.50 L 464.10 1261.90 L 459.30 1259.00 L 454.80 1255.70 L 448.80 1249.80 L 446.30 1246.40 L 444.00 1242.80 L 441.80 1238.00 L 440.10 1233.20 L 439.00 1228.30 L 438.10 1218.10 L 438.30 1212.90 L 439.00 1205.20 L 440.20 1197.60 L 442.10 1188.50 L 444.60 1179.50 L 446.60 1173.60 L 451.30 1162.10 L 457.30 1151.30 L 460.80 1146.10 L 464.10 1142.10 L 467.80 1138.40 L 471.80 1135.20 L 475.10 1133.10 L 482.10 1129.90 L 485.90 1128.80 Z M 497.90 1158.20 L 493.70 1160.00 L 489.50 1163.70 L 487.40 1166.40 L 483.90 1172.20 L 480.60 1179.60 L 477.70 1187.30 L 475.30 1195.10 L 472.70 1207.20 L 471.80 1215.90 L 471.90 1220.20 L 472.60 1224.40 L 473.80 1228.60 L 475.20 1231.40 L 477.00 1233.70 L 479.20 1235.80 L 481.60 1237.40 L 484.30 1238.80 L 490.20 1240.30 L 493.20 1240.50 L 496.20 1240.30 L 499.00 1239.30 L 501.60 1237.90 L 503.80 1236.10 L 507.70 1231.70 L 511.40 1225.20 L 516.70 1212.10 L 519.70 1202.90 L 522.90 1190.40 L 524.00 1184.10 L 524.30 1180.60 L 524.00 1173.60 L 523.20 1170.20 L 521.20 1166.10 L 519.70 1164.20 L 516.70 1161.80 L 513.30 1159.80 L 509.60 1158.40 L 505.70 1157.70 L 503.10 1157.50 L 497.90 1158.20 Z" fill="#010101" fill-rule="nonzero" node-id="109" stroke="none" target-height="144" target-width="120.19998" target-x="438.1" target-y="1127.6"></path><path d="M 868.50 1138.20 L 884.70 1134.00 L 892.90 1132.10 L 901.20 1130.70 L 929.20 1234.70 L 936.80 1264.10 L 910.60 1270.00 L 906.30 1270.50 L 905.10 1269.90 L 848.60 1216.40 L 864.70 1281.30 L 831.70 1287.90 L 815.00 1220.60 L 799.40 1153.00 L 827.00 1148.30 L 828.90 1148.50 L 831.70 1151.00 L 874.80 1193.70 L 888.90 1208.20 L 878.40 1173.30 L 868.50 1138.20 Z" fill="#010101" fill-rule="nonzero" node-id="111" stroke="none" target-height="157.20007" target-width="137.39996" target-x="799.4" target-y="1130.7"></path><path d="M 576.60 1288.10 L 588.80 1149.90 L 623.80 1154.00 L 620.90 1189.60 L 613.70 1260.70 L 654.30 1265.20 L 667.70 1267.20 L 664.60 1298.00 L 576.60 1288.10 Z" fill="#010101" fill-rule="nonzero" node-id="113" stroke="none" target-height="148.09998" target-width="91.10004" target-x="576.6" target-y="1149.9"></path><path d="M 689.60 1161.10 L 779.00 1155.60 L 780.50 1184.90 L 726.20 1188.60 L 727.60 1210.40 L 727.80 1211.50 L 728.50 1212.40 L 765.60 1210.10 L 778.00 1209.80 L 779.10 1237.90 L 729.80 1240.80 L 730.10 1247.50 L 731.70 1267.30 L 738.10 1267.10 L 787.30 1263.60 L 788.60 1293.80 L 707.70 1299.50 L 699.70 1299.70 L 692.60 1207.30 L 689.60 1161.10 Z" fill="#010101" fill-rule="nonzero" node-id="115" stroke="none" target-height="144.09998" target-width="99" target-x="689.6" target-y="1155.6"></path><path d="M 301.50 413.70 L 329.60 462.10 L 338.50 478.40 L 347.10 495.00 L 355.20 511.80 L 362.20 527.00 L 368.50 542.60 L 406.40 640.80 L 414.60 663.30 L 352.40 685.40 L 331.90 643.90 L 295.40 568.20 L 292.00 560.50 L 288.90 552.50 L 286.50 544.40 L 284.60 536.20 L 282.80 525.80 L 281.60 515.40 L 281.00 504.90 L 281.00 494.40 L 281.60 483.90 L 282.70 473.50 L 284.40 463.20 L 286.70 452.90 L 289.60 442.80 L 293.00 432.90 L 297.00 423.20 L 301.50 413.70 Z M 300.90 436.70 L 297.80 455.00 L 296.70 464.30 L 294.30 492.10 L 293.40 512.10 L 293.50 522.10 L 294.20 532.10 L 296.30 545.30 L 297.80 551.80 L 301.20 560.70 L 309.20 577.90 L 348.40 655.60 L 352.50 664.20 L 357.20 672.40 L 371.10 667.80 L 398.30 657.00 L 401.80 655.30 L 402.60 654.50 L 402.90 653.20 L 376.10 586.40 L 356.20 538.90 L 349.30 524.50 L 342.00 510.40 L 313.20 456.70 L 303.10 436.50 L 300.90 436.70 Z" fill="#cfcecf" fill-rule="nonzero" node-id="117" stroke="none" target-height="271.7" target-width="133.6" target-x="281" target-y="413.7"></path><path d="M 300.90 436.70 L 303.10 436.50 L 313.20 456.70 L 342.00 510.40 L 349.30 524.50 L 356.20 538.90 L 376.10 586.40 L 389.50 619.30 L 402.60 652.30 L 402.90 654.00 L 401.80 655.30 L 398.30 657.00 L 371.10 667.80 L 357.20 672.40 L 352.50 664.20 L 305.00 569.40 L 301.20 560.70 L 297.80 551.80 L 295.10 538.70 L 294.20 532.10 L 293.50 522.10 L 293.40 512.10 L 293.70 502.00 L 295.40 478.20 L 297.80 455.00 L 300.90 436.70 Z" fill="#b1b1b1" fill-rule="nonzero" node-id="119" stroke="none" target-height="235.90002" target-width="109.5" target-x="293.4" target-y="436.5"></path><path d="M 731.30 449.70 L 733.30 448.80 L 735.30 448.50 L 737.40 448.70 L 739.30 449.50 L 741.00 450.70 L 742.30 452.40 L 743.50 454.80 L 744.90 460.00 L 745.00 465.30 L 744.60 468.00 L 742.80 473.10 L 739.90 477.50 L 735.80 481.00 L 733.60 482.10 L 731.30 482.60 L 728.90 482.70 L 726.60 482.30 L 724.40 481.50 L 722.30 480.30 L 720.90 477.50 L 720.50 470.60 L 720.80 467.00 L 721.50 463.50 L 722.60 460.20 L 724.10 457.10 L 726.00 454.30 L 728.40 451.80 L 731.30 449.70 Z" fill="#fcfcfc" fill-rule="nonzero" node-id="121" stroke="none" target-height="34.200012" target-width="24.5" target-x="720.5" target-y="448.5"></path><path d="M 560.10 520.20 L 568.80 516.60 L 577.70 513.50 L 586.80 511.10 L 596.00 509.20 L 605.30 508.00 L 614.70 507.40 L 624.10 507.30 L 633.50 507.90 L 642.80 509.10 L 655.20 511.70 L 667.20 515.80 L 673.00 518.50 L 678.60 521.50 L 683.90 524.90 L 688.90 528.80 L 703.40 543.20 L 710.40 549.30 L 714.30 552.00 L 720.70 555.70 L 740.60 564.90 L 743.90 566.90 L 746.90 569.20 L 749.60 572.10 L 751.70 575.20 L 752.80 577.50 L 754.20 582.50 L 754.50 587.90 L 754.30 593.20 L 753.60 598.60 L 752.40 603.80 L 750.60 608.90 L 748.40 613.80 L 746.30 617.30 L 741.40 623.50 L 738.40 626.40 L 734.50 629.50 L 730.40 632.10 L 726.00 634.30 L 716.80 637.70 L 704.70 640.50 L 697.40 641.60 L 686.30 642.40 L 675.30 643.80 L 660.70 646.80 L 645.40 651.10 L 629.00 654.80 L 620.70 656.20 L 612.30 657.10 L 603.90 657.50 L 591.90 656.50 L 585.90 655.60 L 576.30 653.10 L 569.00 649.70 L 565.40 647.40 L 562.20 644.60 L 556.50 638.20 L 538.10 637.70 L 528.90 636.90 L 513.70 634.30 L 501.90 630.90 L 496.00 628.70 L 490.20 625.80 L 486.50 623.60 L 479.90 618.30 L 477.10 615.20 L 474.70 611.70 L 472.80 607.80 L 471.40 603.40 L 470.30 598.80 L 469.80 594.10 L 469.90 589.50 L 471.20 583.50 L 472.50 580.70 L 474.80 576.90 L 477.40 573.30 L 480.50 570.60 L 487.20 566.30 L 492.50 563.70 L 498.20 561.50 L 515.30 555.60 L 520.80 553.20 L 524.70 551.00 L 532.00 545.80 L 537.00 541.20 L 547.10 530.10 L 553.10 524.50 L 556.40 522.10 L 560.10 520.20 Z M 606.50 520.40 L 592.30 522.40 L 578.40 525.60 L 571.60 527.80 L 564.90 530.40 L 561.60 532.30 L 558.60 534.50 L 555.80 537.10 L 543.30 551.00 L 537.90 556.00 L 530.00 561.90 L 525.90 564.50 L 520.90 567.00 L 495.00 577.30 L 492.40 578.70 L 490.30 580.40 L 488.50 582.60 L 487.20 585.00 L 486.30 587.70 L 485.50 593.40 L 486.30 598.90 L 487.30 601.30 L 490.20 605.50 L 493.00 608.10 L 496.20 610.30 L 499.70 612.20 L 510.70 616.20 L 518.20 618.30 L 525.90 619.90 L 541.50 621.90 L 560.90 622.80 L 572.30 622.70 L 583.80 622.10 L 595.30 621.00 L 618.00 617.70 L 625.60 616.00 L 640.30 611.50 L 651.10 607.40 L 693.70 589.10 L 704.50 585.00 L 699.70 584.40 L 685.20 584.20 L 682.20 583.50 L 680.70 582.40 L 680.40 580.50 L 680.70 579.80 L 683.20 577.80 L 686.50 576.30 L 689.80 575.30 L 693.30 574.70 L 696.80 574.60 L 700.30 574.80 L 707.20 576.50 L 713.50 579.60 L 715.60 581.30 L 717.30 583.20 L 718.50 585.50 L 719.30 588.00 L 719.70 590.60 L 719.50 593.20 L 718.70 596.20 L 717.60 599.00 L 716.20 601.70 L 712.30 606.40 L 710.00 608.40 L 704.80 611.60 L 696.60 614.50 L 691.10 615.80 L 668.90 620.00 L 635.10 628.70 L 618.00 632.40 L 606.50 634.30 L 594.90 635.60 L 571.60 637.30 L 572.50 638.90 L 573.70 640.10 L 576.80 641.90 L 585.90 645.20 L 591.80 646.60 L 599.90 647.60 L 612.70 647.00 L 621.40 646.00 L 630.00 644.60 L 638.60 642.70 L 659.70 636.70 L 665.30 635.80 L 670.80 634.40 L 690.60 632.40 L 703.10 630.70 L 709.00 629.50 L 714.80 627.70 L 720.50 625.60 L 725.90 623.10 L 731.30 620.20 L 731.60 618.60 L 733.80 618.00 L 736.60 615.10 L 738.90 611.80 L 740.80 608.20 L 743.60 600.60 L 744.60 596.70 L 745.10 589.90 L 744.90 586.40 L 744.00 583.10 L 743.10 581.10 L 741.80 579.30 L 740.00 577.60 L 733.50 574.10 L 719.90 568.10 L 714.10 565.10 L 708.50 561.70 L 703.30 557.80 L 698.20 553.60 L 684.30 540.30 L 679.60 536.30 L 672.80 531.70 L 669.10 529.80 L 662.50 527.00 L 655.80 524.70 L 649.00 522.70 L 642.00 521.30 L 634.90 520.20 L 627.80 519.60 L 620.70 519.50 L 613.60 519.70 L 606.50 520.40 Z" fill="#020202" fill-rule="nonzero" node-id="123" stroke="none" target-height="150.20001" target-width="284.7" target-x="469.8" target-y="507.3"></path><path d="M 460.90 530.10 L 463.00 527.50 L 468.00 523.20 L 473.70 519.90 L 476.80 518.70 L 481.60 517.40 L 486.50 516.70 L 490.70 516.60 L 494.70 517.10 L 498.50 518.30 L 502.20 520.00 L 505.70 522.20 L 508.80 524.80 L 511.70 527.70 L 514.10 531.00 L 516.10 534.50 L 518.50 540.50 L 520.80 553.20 L 515.30 555.60 L 492.50 563.70 L 487.20 566.30 L 483.70 568.30 L 477.40 573.30 L 474.30 574.80 L 471.10 575.90 L 467.70 576.60 L 464.30 573.70 L 461.50 570.50 L 459.20 566.90 L 457.30 563.10 L 456.00 559.00 L 455.20 554.80 L 454.90 550.40 L 455.10 546.20 L 455.80 541.90 L 457.00 537.70 L 458.70 533.80 L 460.90 530.10 Z" fill="#eb6b68" fill-rule="nonzero" node-id="125" stroke="none" target-height="60" target-width="65.899994" target-x="454.9" target-y="516.6"></path><path d="M 606.50 520.40 L 613.60 519.70 L 620.70 519.50 L 627.80 519.60 L 634.90 520.20 L 642.00 521.30 L 649.00 522.70 L 655.80 524.70 L 662.50 527.00 L 669.10 529.80 L 672.80 531.70 L 679.60 536.30 L 684.30 540.30 L 698.20 553.60 L 703.30 557.80 L 708.50 561.70 L 714.10 565.10 L 719.90 568.10 L 733.50 574.10 L 740.00 577.60 L 741.80 579.30 L 743.10 581.10 L 744.00 583.10 L 744.90 586.40 L 745.10 589.90 L 744.60 596.70 L 742.40 604.50 L 740.80 608.20 L 738.90 611.80 L 736.60 615.10 L 733.80 618.00 L 727.80 619.30 L 726.90 620.20 L 727.20 621.00 L 727.90 621.20 L 729.70 621.00 L 731.30 620.20 L 725.90 623.10 L 720.50 625.60 L 714.80 627.70 L 709.00 629.50 L 703.10 630.70 L 697.10 631.50 L 686.20 630.90 L 680.80 631.00 L 675.40 631.60 L 670.10 632.60 L 664.90 634.30 L 670.80 634.40 L 665.30 635.80 L 659.70 636.70 L 652.30 635.90 L 644.90 635.70 L 646.00 638.20 L 638.60 642.70 L 630.00 644.60 L 621.40 646.00 L 612.70 647.00 L 604.00 647.60 L 599.90 647.60 L 591.80 646.60 L 585.90 645.20 L 576.80 641.90 L 573.70 640.10 L 572.50 638.90 L 571.60 637.30 L 594.90 635.60 L 606.50 634.30 L 618.00 632.40 L 635.10 628.70 L 668.90 620.00 L 691.10 615.80 L 696.60 614.50 L 704.80 611.60 L 710.00 608.40 L 712.30 606.40 L 716.20 601.70 L 717.60 599.00 L 718.70 596.20 L 719.50 593.20 L 719.70 590.60 L 719.30 588.00 L 718.50 585.50 L 717.30 583.20 L 715.60 581.30 L 713.50 579.60 L 707.20 576.50 L 700.30 574.80 L 696.80 574.60 L 693.30 574.70 L 689.80 575.30 L 686.50 576.30 L 683.20 577.80 L 680.70 579.80 L 680.40 580.50 L 680.70 582.40 L 682.20 583.50 L 685.20 584.20 L 699.70 584.40 L 704.50 585.00 L 693.70 589.10 L 651.10 607.40 L 640.30 611.50 L 625.60 616.00 L 618.00 617.70 L 606.70 619.50 L 583.80 622.10 L 572.30 622.70 L 560.90 622.80 L 541.50 621.90 L 525.90 619.90 L 518.20 618.30 L 510.70 616.20 L 503.20 613.70 L 496.20 610.30 L 493.00 608.10 L 490.20 605.50 L 488.60 603.50 L 486.30 598.90 L 485.70 596.20 L 485.70 590.50 L 486.30 587.70 L 487.20 585.00 L 488.50 582.60 L 490.30 580.40 L 492.40 578.70 L 495.00 577.30 L 520.90 567.00 L 525.90 564.50 L 530.00 561.90 L 537.90 556.00 L 543.30 551.00 L 555.80 537.10 L 558.60 534.50 L 561.60 532.30 L 564.90 530.40 L 571.60 527.80 L 578.40 525.60 L 592.30 522.40 L 606.50 520.40 Z M 577.50 545.80 L 575.70 546.30 L 572.60 548.00 L 570.70 550.00 L 569.20 552.30 L 571.50 553.40 L 576.20 554.50 L 580.00 554.60 L 585.60 553.90 L 589.00 552.10 L 591.60 549.30 L 593.00 545.90 L 593.10 544.00 L 592.70 542.00 L 588.90 542.70 L 577.50 545.80 Z M 632.60 546.80 L 631.60 550.00 L 631.40 551.60 L 631.60 553.30 L 632.10 554.70 L 633.30 556.10 L 637.30 558.80 L 642.00 560.20 L 647.00 560.40 L 650.70 559.80 L 656.00 558.00 L 657.30 556.90 L 658.20 555.40 L 658.50 553.80 L 658.00 551.50 L 657.20 550.40 L 651.00 550.00 L 644.90 549.10 L 632.60 546.80 Z M 510.10 614.90 L 515.30 616.90 L 520.80 617.30 L 515.60 614.50 L 513.80 614.10 L 512.00 614.20 L 510.10 614.90 Z" fill="#f6a145" fill-rule="nonzero" node-id="127" stroke="none" target-height="128.09998" target-width="259.39996" target-x="485.7" target-y="519.5"></path><path d="M 808.50 537.00 L 816.70 536.10 L 820.90 536.10 L 824.90 536.60 L 828.90 537.60 L 832.70 539.20 L 836.00 541.00 L 839.00 543.10 L 844.40 548.30 L 848.60 554.40 L 851.40 561.20 L 852.80 568.50 L 852.90 572.20 L 852.50 576.00 L 851.50 580.00 L 850.00 583.80 L 848.10 587.40 L 845.70 590.80 L 843.00 593.90 L 840.00 596.70 L 836.70 599.10 L 833.20 601.20 L 829.40 602.80 L 825.50 604.00 L 821.40 604.70 L 812.90 604.70 L 808.50 604.10 L 804.20 603.00 L 800.00 601.40 L 796.10 599.40 L 792.40 597.00 L 789.10 594.10 L 786.20 590.80 L 783.70 587.10 L 781.90 583.00 L 780.80 579.00 L 780.30 574.80 L 780.40 570.60 L 780.90 566.50 L 782.00 562.40 L 783.50 558.50 L 785.50 554.70 L 787.90 551.10 L 790.60 547.80 L 793.70 544.90 L 797.00 542.30 L 800.60 540.00 L 804.50 538.30 L 808.50 537.00 Z" fill="#ea6a67" fill-rule="nonzero" node-id="129" stroke="none" target-height="68.60004" target-width="72.60004" target-x="780.3" target-y="536.1"></path><path d="M 577.50 545.80 L 588.90 542.70 L 592.70 542.00 L 593.10 544.00 L 593.00 545.90 L 591.60 549.30 L 589.00 552.10 L 585.60 553.90 L 580.00 554.60 L 576.20 554.50 L 571.50 553.40 L 569.20 552.30 L 570.70 550.00 L 572.60 548.00 L 575.70 546.30 L 577.50 545.80 Z" fill="#000509" fill-rule="nonzero" node-id="131" stroke="none" target-height="12.599976" target-width="23.899963" target-x="569.2" target-y="542"></path><path d="M 632.60 546.80 L 644.90 549.10 L 651.00 550.00 L 657.20 550.40 L 657.10 555.60 L 654.20 558.70 L 650.70 559.80 L 647.00 560.40 L 644.50 560.50 L 639.60 559.70 L 635.20 557.60 L 633.30 556.10 L 632.10 554.70 L 631.60 553.30 L 631.40 551.60 L 631.60 550.00 L 632.60 546.80 Z" fill="#000303" fill-rule="nonzero" node-id="133" stroke="none" target-height="13.700012" target-width="25.799988" target-x="631.4" target-y="546.8"></path><path d="M 657.20 550.40 L 658.40 552.70 L 658.20 555.40 L 657.30 556.90 L 656.00 558.00 L 654.20 558.70 L 657.10 555.60 L 657.20 550.40 Z" fill="#683d12" fill-rule="nonzero" node-id="135" stroke="none" target-height="8.299988" target-width="4.200012" target-x="654.2" target-y="550.4"></path><path d="M 467.70 576.60 L 471.10 575.90 L 474.30 574.80 L 477.40 573.30 L 472.50 580.70 L 467.70 576.60 Z" fill="#c1787d" fill-rule="nonzero" node-id="137" stroke="none" target-height="7.4000244" target-width="9.699982" target-x="467.7" target-y="573.3"></path><path d="M 510.10 614.90 L 512.00 614.20 L 513.80 614.10 L 517.40 615.20 L 520.80 617.30 L 518.00 617.20 L 512.60 616.10 L 510.10 614.90 Z" fill="#eda962" fill-rule="nonzero" node-id="139" stroke="none" target-height="3.2000122" target-width="10.699982" target-x="510.1" target-y="614.1"></path><path d="M 726.90 620.20 L 727.80 619.30 L 729.00 618.90 L 731.60 618.60 L 731.30 620.20 L 729.70 621.00 L 727.90 621.20 L 727.20 621.00 L 726.90 620.20 Z" fill="#dfa66c" fill-rule="nonzero" node-id="141" stroke="none" target-height="2.6000366" target-width="4.699951" target-x="726.9" target-y="618.6"></path><path d="M 664.90 634.30 L 670.10 632.60 L 675.40 631.60 L 680.80 631.00 L 686.20 630.90 L 697.10 631.50 L 670.80 634.40 L 664.90 634.30 Z" fill="#ebab67" fill-rule="nonzero" node-id="143" stroke="none" target-height="3.5" target-width="32.19995" target-x="664.9" target-y="630.9"></path><path d="M 644.90 635.70 L 652.30 635.90 L 659.70 636.70 L 649.40 639.80 L 639.00 642.40 L 646.00 638.20 L 644.90 635.70 Z" fill="#eea55f" fill-rule="nonzero" node-id="145" stroke="none" target-height="6.700012" target-width="20.700012" target-x="639" target-y="635.7"></path><path d="M 386.10 688.50 L 424.10 674.60 L 436.90 670.50 L 447.10 692.00 L 439.60 689.90 L 432.00 688.60 L 426.90 688.90 L 421.20 690.70 L 418.30 692.20 L 415.60 694.00 L 410.90 698.50 L 407.30 703.90 L 404.90 710.00 L 397.00 711.10 L 389.20 712.80 L 381.60 714.90 L 370.30 718.70 L 323.50 737.10 L 318.90 738.60 L 309.40 717.40 L 335.10 708.20 L 386.10 688.50 Z" fill="#686665" fill-rule="nonzero" node-id="147" stroke="none" target-height="68.099976" target-width="137.70001" target-x="309.4" target-y="670.5"></path><path d="M 419.70 809.70 L 426.60 803.10 L 442.00 832.20 L 440.70 835.10 L 437.40 840.10 L 435.30 842.20 L 432.20 844.70 L 428.80 846.80 L 425.10 848.60 L 419.30 850.70 L 413.40 852.10 L 411.70 852.30 L 410.20 852.00 L 407.40 850.30 L 405.50 847.70 L 402.50 842.10 L 400.00 836.20 L 398.00 830.20 L 396.50 824.10 L 403.20 823.40 L 406.60 822.80 L 411.90 820.90 L 415.50 818.20 L 417.10 816.40 L 418.20 814.30 L 419.70 809.70 Z" fill="#686667" fill-rule="nonzero" node-id="149" stroke="none" target-height="49.200012" target-width="45.5" target-x="396.5" target-y="803.1"></path><path d="M 540.40 985.20 L 545.40 984.30 L 555.80 991.90 L 566.40 998.80 L 577.40 1005.30 L 588.70 1011.20 L 600.30 1016.60 L 612.10 1021.40 L 624.10 1025.80 L 636.20 1029.60 L 648.50 1032.90 L 634.60 1042.00 L 620.90 1051.50 L 603.80 1063.80 L 593.10 1072.80 L 588.10 1077.80 L 579.40 1073.70 L 570.60 1070.10 L 561.50 1066.80 L 543.10 1061.20 L 519.70 1055.80 L 505.60 1053.10 L 492.10 1050.80 L 485.40 1049.90 L 478.60 1049.40 L 477.30 1041.30 L 476.30 1037.30 L 473.20 1029.70 L 471.20 1026.10 L 465.20 1018.50 L 455.40 1007.70 L 452.30 1004.00 L 469.70 1001.20 L 525.00 989.20 L 529.20 988.70 L 533.30 989.30 L 535.30 989.10 L 537.00 988.50 L 538.60 987.40 L 540.40 985.20 Z" fill="#f7a247" fill-rule="nonzero" node-id="151" stroke="none" target-height="93.50006" target-width="196.20001" target-x="452.3" target-y="984.3"></path><path d="M 528.00 988.50 L 540.00 985.70 L 538.60 987.40 L 537.00 988.50 L 535.30 989.10 L 531.30 989.20 L 528.00 988.50 Z" fill="#e8b162" fill-rule="nonzero" node-id="153" stroke="none" target-height="3.5" target-width="12" target-x="528" target-y="985.7"></path><path d="M 870.30 1014.30 L 874.50 1013.00 L 877.30 1012.90 L 909.80 1027.40 L 933.70 1037.30 L 940.30 1040.30 L 946.60 1043.80 L 942.70 1048.20 L 934.30 1056.10 L 927.50 1061.60 L 906.70 1077.40 L 888.20 1092.70 L 879.10 1092.10 L 870.00 1091.90 L 860.80 1092.10 L 851.70 1092.80 L 833.60 1095.00 L 830.60 1094.40 L 821.40 1091.40 L 815.00 1089.60 L 802.10 1086.80 L 777.40 1081.80 L 765.70 1080.40 L 765.10 1048.50 L 765.50 1037.90 L 792.20 1034.40 L 818.70 1029.40 L 831.80 1026.30 L 844.80 1022.80 L 857.60 1018.80 L 870.30 1014.30 Z" fill="#f7a246" fill-rule="nonzero" node-id="155" stroke="none" target-height="82.099976" target-width="181.5" target-x="765.1" target-y="1012.9"></path></g></svg>